<?xml version="1.0" encoding="utf-8"?>
<!-- Generator: Adobe Illustrator 18.1.1, SVG Export Plug-In . SVG Version: 6.00 Build 0)  -->
<!DOCTYPE svg PUBLIC "-//W3C//DTD SVG 1.1//EN" "http://www.w3.org/Graphics/SVG/1.1/DTD/svg11.dtd">
<svg version="1.1" id="Layer_1" xmlns="http://www.w3.org/2000/svg" xmlns:xlink="http://www.w3.org/1999/xlink" x="0px" y="0px"
	 viewBox="0 0 363.1 74.2" style="enable-background:new 0 0 363.1 74.2;" xml:space="preserve">
<path d="M102,71.3c0-3.5,0-6.6,0-9.7c0-18.2,0.2-36.3-0.1-54.5c-0.1-4.7,1.3-6.3,5.9-5.8c2.3,0.3,4.6,0,7.5,0c0,8.4,0,16.2,0,23.1
	c5.8-1.7,11.3-4.3,16.9-4.6c9.4-0.5,16.4,5.6,19.6,15.5c2.5,7.7,2.4,15.5-0.4,23c-5.5,14.7-21.5,18.9-33.7,9.1
	c-0.5-0.4-1-0.7-1.9-1.3c-0.2,1.9-0.4,3.3-0.6,5.1C111,71.3,106.9,71.3,102,71.3z M114.6,46.6c0.8,3.6,0.7,7.8,2.7,10.6
	c3.2,4.4,10.7,5.1,15.5,2.5c5.1-2.7,7.9-9.5,6.7-16.4c-1-6.2-4.8-10.5-10.1-11.5C120,30.2,115.4,35,114.6,46.6z"/>
<path d="M291.7,50.4c0.9,12,12.1,14.8,27.7,7.5c1.7,2.5,3.5,5.1,5.2,7.5c-8.1,8.7-26,10-36.7,2.8c-10.2-6.9-13.9-21.3-8.5-33.5
	c5.2-11.6,18.2-17.7,30.8-14.3c12,3.2,19.3,15,17.9,29.9C316.1,50.4,303.9,50.4,291.7,50.4z M315.5,41.2c-1.3-7.5-6.1-11.4-12.8-11
	c-6.4,0.3-10.7,4.4-11.3,11C299.3,41.2,307.2,41.2,315.5,41.2z"/>
<path d="M193.5,21.1c4.7,0,8.5,0,12.7,0c0,16.7,0,33.2,0,50.2c-3.9,0-8,0-12.3,0c-0.2-1.5-0.4-3.1-0.8-5.4c-5.7,4.7-11.7,7.4-18.9,7
	c-8.9-0.5-14.4-4.9-14.7-13.7c-0.4-12.5-0.1-24.9-0.1-37.8c4.2,0,8.3,0,13.1,0c0,5.5,0,11.1,0,16.7c0,4.2,0.1,8.3,0,12.5
	c-0.1,4.7,0.8,8.7,6.1,10.1c5,1.3,12.1-1,14.2-5c0.7-1.4,0.7-3.2,0.7-4.8C193.5,41.1,193.5,31.4,193.5,21.1z"/>
<path d="M248.9,5.3c-1.5,2.4-3,4.6-4.3,6.8c-10.3-2.1-13.1-0.1-11.8,8.6c3,0.2,6.1,0.3,9.4,0.5c0,3.7,0,7.2,0,11
	c-3.1,0.2-6.2,0.4-10,0.6c0,12.9,0,25.6,0,38.5c-4.8,0-8.8,0-13.5,0c0-13,0-25.7,0-38.6c-2.8-0.2-5.1-0.4-7.8-0.6
	c0-3.7,0-7.2,0-11.1c2.5-0.2,4.9-0.3,7.6-0.5c0.1-8.4,2-15.8,10.7-19.1C235.5-0.8,243.4,0.6,248.9,5.3z"/>
<path d="M253.1,32.9c-3.3-0.2-5.6-0.4-8.1-0.6c0-3.7,0-7.1,0-11c2.4-0.2,4.8-0.3,7.8-0.6c0.2-8.8,2.3-16.9,12-19.5
	c6.5-1.7,12.8-1,18.5,3.8c-1.6,2.6-3.1,5-4.5,7.2c-9.4-2.7-12.7-0.5-11.9,8.5c3,0,6.1,0,9.5,0c0,4.1,0,7.6,0,11.5
	c-3.2,0.2-6.1,0.3-9.7,0.5c0,12.8,0,25.5,0,38.5c-4.7,0-8.7,0-13.5,0C253.1,58.6,253.1,45.9,253.1,32.9z"/>
<path d="M347.4,71c-1,0.4-1.3,0.6-1.6,0.6c-11.6,0.9-11.6,0.9-11.6-10.7c0-11.3,0-22.6,0-33.9c0-1.8,0-3.6,0-5.7c4.6,0,8.7,0,13,0
	c0.1,1.7,0.3,3.4,0.4,4.7c4.9-2.4,9.8-4.8,15.6-7.6c0,5.5,0,9.4,0,13.6c-1.7,0.1-3.5,0.1-5.3,0.5c-9,2.1-11,4-10.6,12
	C347.8,53.3,347.4,62.1,347.4,71z"/>
<path style="fill:#FFFFFF;" d="M114.6,46.6c0.8-11.6,5.4-16.4,14.8-14.8c5.3,0.9,9.1,5.2,10.1,11.5c1.1,7-1.6,13.8-6.7,16.4
	c-4.8,2.5-12.3,1.9-15.5-2.5C115.3,54.4,115.4,50.1,114.6,46.6z"/>
<g>
	<path d="M36.2,0c0.9,0,1.8,0.4,2.6,0.7c10.5,4.9,21,9.8,31.6,14.7c0.8,0.4,1.8,0.5,1.9,1.6c0,1.2-1.1,1.3-1.8,1.6
		c-10.6,5-21.2,9.9-31.8,14.8c-1.7,0.8-3.4,0.8-5.1,0c-10.8-5-21.5-10-32.3-15.1c-0.5-0.3-1.3-0.9-1.2-1.4c0-0.5,0.7-1.1,1.3-1.4
		C12.1,10.7,22.9,5.6,33.6,0.6C34.4,0.3,35.7,0,36.2,0z"/>
	<path d="M36.1,54.2c-0.7,0-1.8-0.4-2.6-0.8c-10.7-5-21.5-10-32.2-15c-0.6-0.3-1.3-0.9-1.3-1.3c0.1-0.5,0.7-1.2,1.3-1.5
		c1.7-0.9,3.5-1.7,5.3-2.5c1.8-0.8,3.6-0.8,5.4,0c7,3.3,14.1,6.5,21.1,9.9c2,0.9,3.9,0.9,5.9,0c7-3.3,14.1-6.6,21.1-9.9
		c1.8-0.8,3.6-0.9,5.3,0c1.9,0.9,3.8,1.7,5.6,2.7c0.5,0.2,1.1,0.9,1.1,1.2c0,0.5-0.6,1.1-1.1,1.4c-10.8,5.1-21.6,10.1-32.5,15.2
		C37.9,53.9,36.9,54.2,36.1,54.2z"/>
	<path d="M36.2,74.2c-1.1,0-2.1-0.5-3.1-1c-10.4-4.8-20.8-9.7-31.2-14.6C1.1,58.3,0,58.2,0,57c0-1.2,0.9-1.3,1.6-1.6
		c3.2-1.5,3.4-1.5,5-2.3c1.9-0.9,3.7-0.9,5.6,0c6.9,3.2,13.8,6.4,20.7,9.7c2.2,1.1,4.3,1.1,6.5,0c6.9-3.3,13.8-6.4,20.7-9.7
		c1.9-0.9,3.8-0.9,5.7,0c1.8,0.9,3.6,1.7,5.4,2.6c0.5,0.2,1.1,0.8,1.1,1.2c0,0.6-0.6,1.1-1.1,1.4c-7.4,3.5-14.9,7-22.3,10.5
		c-3.2,1.5-6.4,3-9.6,4.5C38.2,73.7,37.3,74.2,36.2,74.2z"/>
</g>
</svg>
