<?xml version="1.0" encoding="utf-8"?>
<!DOCTYPE svg PUBLIC "-//W3C//DTD SVG 1.1//EN" "http://www.w3.org/Graphics/SVG/1.1/DTD/svg11.dtd">
<svg version="1.1" xmlns="http://www.w3.org/2000/svg" xmlns:xlink="http://www.w3.org/1999/xlink" x="0px" y="0px"
   viewBox="0 0 226.6 233.8" style="enable-background:new 0 0 226.6 233.8;" xml:space="preserve">
<g id="numbers">
  <g>
    <path d="M105.5,22.7V6.4h-5.9V4.3c0.8,0,1.5-0.1,2.2-0.2c0.7-0.1,1.4-0.3,2-0.7c0.6-0.3,1.1-0.8,1.5-1.3c0.4-0.6,0.7-1.3,0.8-2.1
      h2.1v22.7H105.5z"/>
    <path d="M114.1,4.8c0.3-1,0.8-1.8,1.4-2.5c0.6-0.7,1.4-1.3,2.4-1.7c0.9-0.4,2-0.6,3.2-0.6c1,0,1.9,0.1,2.8,0.4
      c0.9,0.3,1.6,0.7,2.3,1.2c0.6,0.5,1.1,1.2,1.5,2c0.4,0.8,0.6,1.7,0.6,2.8c0,1-0.2,1.9-0.5,2.7s-0.7,1.5-1.2,2.1
      c-0.5,0.6-1.1,1.2-1.8,1.6c-0.7,0.5-1.3,1-2,1.4c-0.7,0.4-1.4,0.8-2.1,1.3s-1.3,0.9-1.9,1.3c-0.6,0.5-1.1,1-1.5,1.5
      s-0.7,1.2-0.8,1.9h11.6v2.4h-14.8c0.1-1.3,0.3-2.5,0.7-3.4c0.4-0.9,0.8-1.8,1.4-2.5s1.2-1.3,2-1.9c0.7-0.5,1.5-1,2.3-1.5
      c1-0.6,1.8-1.1,2.5-1.6c0.7-0.5,1.3-1,1.8-1.5c0.5-0.5,0.8-1.1,1.1-1.7s0.4-1.3,0.4-2.1c0-0.6-0.1-1.2-0.4-1.7
      c-0.2-0.5-0.5-0.9-0.9-1.3c-0.4-0.4-0.9-0.6-1.4-0.8c-0.5-0.2-1.1-0.3-1.7-0.3c-0.8,0-1.5,0.2-2,0.5c-0.6,0.3-1,0.8-1.4,1.3
      c-0.4,0.5-0.6,1.1-0.8,1.8s-0.2,1.3-0.2,2h-2.7C113.7,6.9,113.8,5.8,114.1,4.8z"/>
  </g>
  <g>
    <path d="M166.5,38.2V21.9h-5.9v-2.2c0.8,0,1.5-0.1,2.2-0.2c0.7-0.1,1.4-0.3,2-0.7c0.6-0.3,1.1-0.8,1.5-1.3
      c0.4-0.6,0.7-1.3,0.8-2.1h2.1v22.7H166.5z"/>
  </g>
  <g>
    <path d="M198.9,59.2c0.3-1,0.8-1.8,1.4-2.5c0.6-0.7,1.4-1.3,2.4-1.7c0.9-0.4,2-0.6,3.2-0.6c1,0,1.9,0.1,2.8,0.4
      c0.9,0.3,1.6,0.7,2.3,1.2c0.6,0.5,1.1,1.2,1.5,2c0.4,0.8,0.6,1.7,0.6,2.8c0,1-0.2,1.9-0.5,2.7s-0.7,1.5-1.2,2.1
      c-0.5,0.6-1.1,1.2-1.8,1.6c-0.7,0.5-1.3,1-2,1.4c-0.7,0.4-1.4,0.8-2.1,1.3s-1.3,0.9-1.9,1.3c-0.6,0.5-1.1,1-1.5,1.5
      s-0.7,1.2-0.8,1.9h11.6V77H198c0.1-1.3,0.3-2.5,0.7-3.4c0.4-0.9,0.8-1.8,1.4-2.5s1.2-1.3,2-1.9c0.7-0.5,1.5-1,2.3-1.5
      c1-0.6,1.8-1.1,2.5-1.6c0.7-0.5,1.3-1,1.8-1.5c0.5-0.5,0.8-1.1,1.1-1.7s0.4-1.3,0.4-2.1c0-0.6-0.1-1.2-0.4-1.7
      c-0.2-0.5-0.5-0.9-0.9-1.3c-0.4-0.4-0.9-0.6-1.4-0.8c-0.5-0.2-1.1-0.3-1.7-0.3c-0.8,0-1.5,0.2-2,0.5c-0.6,0.3-1,0.8-1.4,1.3
      c-0.4,0.5-0.6,1.1-0.8,1.8s-0.2,1.3-0.2,2h-2.7C198.5,61.2,198.6,60.2,198.9,59.2z"/>
  </g>
  <g>
    <path d="M217.6,115.1c0.1,0,0.2,0,0.3,0h0.6c0.6,0,1.1-0.1,1.6-0.2s1-0.4,1.4-0.7c0.4-0.3,0.7-0.7,0.9-1.2c0.2-0.5,0.4-1,0.4-1.6
      c0-1.2-0.4-2.1-1.2-2.7c-0.8-0.6-1.7-0.9-2.9-0.9c-0.7,0-1.4,0.1-1.9,0.4c-0.5,0.3-1,0.6-1.3,1.1c-0.4,0.4-0.6,1-0.8,1.6
      c-0.2,0.6-0.3,1.2-0.3,1.9h-2.7c0-1.1,0.2-2.1,0.5-3s0.8-1.7,1.3-2.3c0.6-0.6,1.3-1.1,2.2-1.5c0.9-0.4,1.9-0.5,3-0.5
      c1,0,1.9,0.1,2.7,0.4s1.6,0.6,2.2,1.1c0.6,0.5,1.1,1.1,1.5,1.9s0.5,1.7,0.5,2.7c0,1-0.3,1.9-0.9,2.7c-0.6,0.8-1.3,1.4-2.2,1.8v0.1
      c1.4,0.3,2.4,1,3.1,2c0.7,1,1,2.2,1,3.6c0,1.1-0.2,2.1-0.6,3c-0.4,0.9-1,1.6-1.7,2.2s-1.5,1-2.5,1.3s-2,0.4-3,0.4
      c-1.2,0-2.2-0.2-3.1-0.5c-0.9-0.3-1.7-0.8-2.4-1.4c-0.7-0.6-1.2-1.4-1.5-2.3c-0.4-0.9-0.5-2-0.5-3.1h2.7c0,1.5,0.5,2.7,1.3,3.6
      c0.8,0.9,2,1.4,3.6,1.4c0.7,0,1.3-0.1,1.9-0.3c0.6-0.2,1.1-0.5,1.6-0.9s0.8-0.8,1.1-1.4s0.4-1.2,0.4-1.8c0-0.7-0.1-1.3-0.4-1.9
      s-0.6-1-1-1.4s-0.9-0.7-1.5-0.8s-1.2-0.3-1.9-0.3c-0.6,0-1.1,0-1.6,0.1V115C217.4,115.1,217.5,115.1,217.6,115.1z"/>
  </g>
  <g>
    <path d="M214.2,173.8v2.4h-3.1v5.3h-2.6v-5.3h-10v-2.6l10.3-14.8h2.2v15H214.2z M208.6,162.7L208.6,162.7l-7.6,11.1h7.6V162.7z"/>
  </g>
  <g>
    <path d="M163.7,199.4l-1.2,6.5l0.1,0.1c0.5-0.6,1.1-1,1.9-1.2c0.8-0.3,1.6-0.4,2.3-0.4c1,0,2,0.2,2.8,0.5c0.9,0.3,1.7,0.8,2.3,1.5
      c0.7,0.7,1.2,1.5,1.6,2.4s0.6,2.1,0.6,3.4c0,1-0.2,1.9-0.5,2.8c-0.3,0.9-0.8,1.7-1.5,2.4s-1.5,1.3-2.5,1.7s-2.1,0.6-3.5,0.6
      c-1,0-1.9-0.1-2.8-0.4s-1.6-0.7-2.3-1.2s-1.2-1.2-1.6-2c-0.4-0.8-0.6-1.7-0.6-2.8h2.7c0,0.6,0.2,1.1,0.4,1.6
      c0.2,0.5,0.6,0.9,1,1.3c0.4,0.4,0.9,0.7,1.5,0.9c0.6,0.2,1.2,0.3,1.9,0.3c0.6,0,1.3-0.1,1.8-0.3c0.6-0.2,1.1-0.6,1.5-1
      c0.4-0.4,0.8-1,1-1.7c0.3-0.7,0.4-1.5,0.4-2.4c0-0.7-0.1-1.4-0.4-2.1s-0.6-1.2-1-1.6s-1-0.8-1.6-1.1s-1.3-0.4-2.1-0.4
      c-0.9,0-1.7,0.2-2.4,0.6c-0.7,0.4-1.3,0.9-1.8,1.6l-2.3-0.1l2.1-11.8h11.2v2.4H163.7z"/>
  </g>
  <g>
    <path d="M116.4,214.1c-0.7-0.6-1.5-0.9-2.6-0.9c-1.2,0-2.1,0.3-2.8,0.8s-1.3,1.3-1.6,2.1s-0.7,1.8-0.8,2.8c-0.1,1-0.2,1.9-0.3,2.8
      l0.1,0.1c0.6-1,1.4-1.8,2.4-2.3c0.9-0.5,2-0.7,3.3-0.7c1.1,0,2.1,0.2,2.9,0.6c0.9,0.4,1.6,0.9,2.2,1.6s1,1.4,1.4,2.3
      c0.3,0.9,0.5,1.9,0.5,2.9c0,0.8-0.1,1.7-0.4,2.6c-0.3,0.9-0.7,1.7-1.3,2.4c-0.6,0.7-1.4,1.3-2.3,1.8c-1,0.5-2.2,0.7-3.6,0.7
      c-1.7,0-3-0.3-4.1-1s-1.8-1.6-2.4-2.6c-0.6-1.1-0.9-2.2-1.1-3.5c-0.2-1.3-0.3-2.5-0.3-3.7c0-1.6,0.1-3.1,0.4-4.5
      c0.3-1.5,0.7-2.8,1.4-3.9c0.6-1.1,1.5-2,2.6-2.7c1.1-0.7,2.4-1,4-1c1.9,0,3.4,0.5,4.5,1.5c1.1,1,1.7,2.4,1.9,4.3h-2.7
      C117.5,215.5,117.1,214.7,116.4,214.1z M111.5,221.6c-0.6,0.3-1.1,0.6-1.5,1.1c-0.4,0.5-0.7,1-0.9,1.6c-0.2,0.6-0.3,1.3-0.3,2
      c0,0.7,0.1,1.4,0.3,2c0.2,0.6,0.5,1.2,0.9,1.6c0.4,0.4,0.9,0.8,1.5,1.1c0.6,0.3,1.3,0.4,2,0.4c0.7,0,1.4-0.1,2-0.4
      c0.6-0.3,1-0.6,1.4-1.1c0.4-0.5,0.7-1,0.9-1.6s0.3-1.2,0.3-1.9c0-0.7-0.1-1.4-0.3-2c-0.2-0.6-0.5-1.2-0.8-1.6
      c-0.4-0.5-0.9-0.8-1.4-1.1s-1.2-0.4-2-0.4C112.7,221.2,112.1,221.4,111.5,221.6z"/>
  </g>
  <g>
    <path d="M64.9,203.4c-1,1.6-1.9,3.2-2.7,5c-0.8,1.8-1.4,3.6-1.9,5.5c-0.5,1.9-0.8,3.7-0.9,5.5h-3c0.1-1.9,0.4-3.8,0.9-5.6
      c0.5-1.8,1.1-3.6,1.9-5.2s1.7-3.3,2.7-4.8c1-1.5,2.1-2.9,3.3-4.1H53.5V197h14.7v2.3C67,200.5,65.9,201.8,64.9,203.4z"/>
  </g>
  <g>
    <path d="M15.2,162.1c0.4-0.7,0.9-1.3,1.5-1.8c0.6-0.5,1.3-0.9,2.1-1.1c0.8-0.3,1.6-0.4,2.5-0.4c1.2,0,2.3,0.2,3.2,0.5
      c0.9,0.3,1.6,0.8,2.1,1.3s0.9,1.2,1.2,1.9c0.3,0.7,0.4,1.4,0.4,2.1c0,1-0.3,2-0.8,2.8s-1.3,1.5-2.3,1.9c1.4,0.4,2.4,1.1,3,2.1
      s1,2.2,1,3.6c0,1.1-0.2,2.1-0.6,2.9c-0.4,0.9-0.9,1.6-1.6,2.2s-1.5,1-2.4,1.3s-1.9,0.4-2.9,0.4c-1.1,0-2.1-0.1-3-0.4
      c-0.9-0.3-1.8-0.7-2.4-1.3s-1.2-1.3-1.6-2.2c-0.4-0.9-0.6-1.9-0.6-3c0-1.3,0.3-2.5,1-3.5c0.7-1,1.7-1.7,2.9-2.2
      c-1-0.4-1.7-1-2.3-1.9c-0.6-0.9-0.9-1.8-0.9-2.8C14.6,163.6,14.8,162.8,15.2,162.1z M18.1,178.3c0.9,0.8,2.1,1.2,3.5,1.2
      c0.7,0,1.3-0.1,1.9-0.3c0.6-0.2,1.1-0.5,1.5-0.9s0.7-0.9,1-1.4s0.3-1.1,0.3-1.8c0-0.6-0.1-1.2-0.4-1.7s-0.6-1-1-1.4
      s-0.9-0.7-1.5-0.9c-0.6-0.2-1.2-0.3-1.8-0.3c-0.7,0-1.3,0.1-1.9,0.3c-0.6,0.2-1.1,0.5-1.5,0.9c-0.4,0.4-0.8,0.8-1,1.4
      c-0.2,0.5-0.4,1.1-0.4,1.8C16.7,176.4,17.1,177.5,18.1,178.3z M17.8,166.3c0.2,0.5,0.5,0.8,0.9,1.1c0.4,0.3,0.8,0.5,1.3,0.7
      c0.5,0.1,1,0.2,1.6,0.2c1.1,0,2-0.3,2.7-1c0.7-0.6,1.1-1.5,1.1-2.7s-0.4-2-1.1-2.6c-0.7-0.6-1.6-0.9-2.7-0.9c-0.5,0-1,0.1-1.5,0.2
      c-0.5,0.1-0.9,0.4-1.3,0.7c-0.4,0.3-0.6,0.7-0.8,1.1c-0.2,0.4-0.3,0.9-0.3,1.5C17.5,165.3,17.6,165.8,17.8,166.3z"/>
  </g>
  <g>
    <path d="M4.5,125.1c0.8,0.6,1.7,0.9,2.8,0.9c1.7,0,2.9-0.7,3.7-2.2s1.3-3.6,1.4-6.6l-0.1-0.1c-0.5,1-1.2,1.7-2.2,2.3
      c-0.9,0.6-2,0.8-3.1,0.8c-1.2,0-2.2-0.2-3.1-0.6c-0.9-0.4-1.6-0.9-2.3-1.6c-0.6-0.7-1.1-1.5-1.4-2.4c-0.3-0.9-0.5-2-0.5-3.1
      c0-1.1,0.2-2.1,0.5-3c0.4-0.9,0.9-1.7,1.5-2.3c0.7-0.7,1.5-1.2,2.4-1.5c0.9-0.4,1.9-0.5,3-0.5c1.1,0,2.1,0.2,3,0.5
      c0.9,0.3,1.8,0.9,2.5,1.7c0.7,0.8,1.3,1.9,1.7,3.3c0.4,1.4,0.6,3.2,0.6,5.3c0,3.9-0.6,6.9-1.9,9c-1.2,2.1-3.2,3.2-6,3.2
      c-1.9,0-3.5-0.5-4.7-1.4s-2-2.4-2.1-4.4h2.7C3.3,123.6,3.8,124.5,4.5,125.1z M11.7,110.9c-0.2-0.6-0.5-1.2-0.9-1.6
      s-0.9-0.9-1.5-1.1c-0.6-0.3-1.2-0.4-2-0.4c-0.8,0-1.5,0.1-2.1,0.4s-1,0.7-1.4,1.2c-0.4,0.5-0.6,1.1-0.8,1.7
      c-0.2,0.6-0.2,1.3-0.2,2c0,0.6,0.1,1.2,0.3,1.8c0.2,0.6,0.5,1.1,0.9,1.5c0.4,0.4,0.9,0.8,1.4,1.1s1.1,0.4,1.8,0.4
      c0.7,0,1.3-0.1,1.9-0.4s1.1-0.6,1.5-1.1c0.4-0.5,0.7-1,0.9-1.6c0.2-0.6,0.3-1.2,0.3-1.9C12,112.2,11.9,111.5,11.7,110.9z"/>
  </g>
  <g>
    <path d="M13.6,76V59.8H7.8v-2.2c0.8,0,1.5-0.1,2.2-0.2c0.7-0.1,1.4-0.3,2-0.7c0.6-0.3,1.1-0.8,1.5-1.3c0.4-0.6,0.7-1.3,0.8-2.1
      h2.1V76H13.6z"/>
    <path d="M21.9,62.3c0-0.9,0.1-1.8,0.3-2.6c0.2-0.9,0.4-1.7,0.7-2.4c0.3-0.8,0.8-1.4,1.3-2c0.6-0.6,1.3-1,2.1-1.4s1.9-0.5,3-0.5
      c1.2,0,2.2,0.2,3,0.5s1.5,0.8,2.1,1.4c0.6,0.6,1,1.2,1.3,2c0.3,0.8,0.6,1.6,0.7,2.4c0.2,0.9,0.3,1.7,0.3,2.6s0.1,1.8,0.1,2.6
      c0,0.8,0,1.7-0.1,2.6s-0.1,1.8-0.3,2.6c-0.2,0.9-0.4,1.7-0.7,2.4s-0.8,1.4-1.3,2c-0.6,0.6-1.2,1-2.1,1.4s-1.8,0.5-3,0.5
      c-1.2,0-2.2-0.2-3-0.5s-1.5-0.8-2.1-1.4c-0.6-0.6-1-1.2-1.3-2s-0.6-1.6-0.7-2.4c-0.2-0.9-0.3-1.7-0.3-2.6c0-0.9-0.1-1.8-0.1-2.6
      C21.9,64.1,21.9,63.2,21.9,62.3z M24.8,67.7c0.1,1.1,0.2,2,0.5,3c0.3,0.9,0.8,1.7,1.4,2.4s1.5,1,2.7,1c1.2,0,2-0.3,2.7-1
      s1.1-1.4,1.4-2.4c0.3-0.9,0.5-1.9,0.5-3c0.1-1.1,0.1-2,0.1-2.9c0-0.6,0-1.2,0-1.8c0-0.7-0.1-1.3-0.2-2c-0.1-0.7-0.2-1.3-0.4-2
      c-0.2-0.6-0.4-1.2-0.8-1.7c-0.4-0.5-0.8-0.9-1.3-1.2s-1.2-0.4-2-0.4c-0.8,0-1.4,0.1-2,0.4c-0.5,0.3-1,0.7-1.3,1.2
      c-0.4,0.5-0.6,1-0.8,1.7c-0.2,0.6-0.3,1.3-0.4,2c-0.1,0.7-0.1,1.3-0.2,2c0,0.7,0,1.3,0,1.8C24.8,65.7,24.8,66.7,24.8,67.7z"/>
  </g>
  <g>
    <path d="M53.5,38.2V21.9h-5.9v-2.2c0.8,0,1.5-0.1,2.2-0.2c0.7-0.1,1.4-0.3,2-0.7c0.6-0.3,1.1-0.8,1.5-1.3c0.4-0.6,0.7-1.3,0.8-2.1
      h2.1v22.7H53.5z"/>
    <path d="M69.1,38.2V21.9h-5.9v-2.2c0.8,0,1.5-0.1,2.2-0.2c0.7-0.1,1.4-0.3,2-0.7c0.6-0.3,1.1-0.8,1.5-1.3c0.4-0.6,0.7-1.3,0.8-2.1
      h2.1v22.7H69.1z"/>
  </g>
</g>
</svg>
