<svg xmlns="http://www.w3.org/2000/svg" xmlns:xlink="http://www.w3.org/1999/xlink" version="1.1" class="logo" x="0" y="0" viewBox="0 0 388.7 195.3" enable-background="new 0 0 388.7 195.3" xml:space="preserve">
  <g class="large-rock">
    <polygon id="Background_2_" fill="#E6E7E8" points="251.5 63.2 286.1 63.2 315.7 63.2 337.6 80 342.5 97 385.5 156.8 347.4 170.2 286.1 163.2 214.1 166 203.6 146.3 203.6 123.7 219.1 114.5 234.6 85.1 "/>
    <polygon id="Shading_49_" fill="#D1D3D4" points="213.6 164.4 245.3 144.4 267.7 142.8 291 145.6 315.7 131.6 350.2 141 385.5 156.8 347.4 170.2 286.1 163.2 252.9 164.1 "/>
    <polygon id="Shading_48_" fill="#D1D3D4" points="227.2 100.4 249.4 101.4 255.7 108.2 232.5 116.7 212.5 132.9 203.6 125 216.7 115.8 "/>
    <polygon id="Shading" fill="#D1D3D4" points="299.6 98.2 303.2 89.1 316.9 84.6 335.5 100 317.5 94.4 305.9 100 "/>
    <polygon id="Shading_47_" fill="#D1D3D4" points="253.5 115.9 282.5 108.2 299.2 112.5 310.5 121 304.2 128.8 283.1 130.2 264.8 132.5 247.2 131.6 239.5 139.9 224.7 135 "/>
  </g>
  <g class="small-rock-1">
    <polygon id="Background_1_" fill="#F1F2F2" points="306.5 175.2 320.1 160.6 347.6 156.3 358.9 165.8 364.6 184.5 339.2 193.5 312 189.9 "/>
    <polygon id="Shading_46_" fill="#D1D3D4" points="306.5 174.9 331.2 182.5 348.1 181 360.8 171.8 364.6 184.3 339.2 193.2 312 189.6 "/>
    <polygon id="Outline_1_" fill="none" stroke="#fcf5f2" stroke-width="4" stroke-miterlimit="10" points="306.5 174.9 320.1 160.3 347.6 156.1 358.9 165.5 364.6 184.3 339.2 193.2 312 189.6 "/>
  </g>
  <g class="small-rock-2">
    <polygon id="Background" fill="#F1F2F2" points="265.6 158 280.9 154 296.1 165.6 299.8 180.6 268.6 189.7 253.8 176.9 260.6 159.3 "/>
    <polygon id="Shading_45_" fill="#E6E7E8" points="258.9 163.5 273.2 178.2 289.2 170.5 297.3 170.5 299.8 180.6 268.6 189.7 254.3 175.3 "/>
    <polygon id="Outline" fill="none" stroke="#fcf5f2" stroke-width="4" stroke-miterlimit="10" points="265.6 158 280.9 154 296.1 165.6 299.8 180.6 268.6 189.7 253.8 176.9 260.6 159.3 "/>
  </g>
  <g class="logo-group">
    <path fill="#2E2729" d="M17 97.9C9.5 90.7 5.7 79.6 5.7 64.5c0-15.1 3.8-26.2 11.3-33.4 7.5-7.2 18.9-10.8 34-10.8h13.6c9.2 0 17.4 2.4 24.5 7.2 7.1 4.8 10.6 11.4 10.6 19.7 0 2.4-0.7 4.1-2.1 5.2 -1.4 1-2.8 1.6-4.1 1.6h-7.3c-3.7 0-6.7-2.2-8.7-6.7 -3-6.4-8-9.6-15-9.6H51.6c-8.9 0-14.9 1.9-18.1 5.7 -3.2 3.8-4.8 10.9-4.8 21.2 0 10.3 1.6 17.4 4.8 21.3 3.2 3.8 9.2 5.8 18.1 5.8h12.1c7 0 12-3.2 14.9-9.6 2.1-4.5 5-6.8 8.8-6.8h7.3c1.9 0 3.4 0.7 4.5 2.1 1.1 1.4 1.7 3 1.7 4.6 0 8.3-3.5 14.9-10.6 19.7 -7.1 4.8-15.2 7.2-24.5 7.2H51C35.9 108.7 24.6 105.1 17 97.9z"/>
    <path fill="#2E2729" d="M107.8 85.8c0-2.4 0.7-4.1 2.1-5.2 1.4-1 2.8-1.6 4.1-1.6h7.3c3.7 0 6.4 2 8.4 6 1.9 4 6.2 6 12.9 6l21.4 0.4c7.2 0 10.7-2.3 10.7-7 0-3.5-4.4-6.3-13.1-8.4 -3.9-0.9-8.2-1.9-12.9-2.8 -4.7-0.9-9.4-2.1-14.1-3.4 -4.7-1.4-8.9-3-12.8-4.9 -3.9-1.9-7.1-4.4-9.5-7.7 -2.4-3.3-3.6-7.1-3.6-11.6 0-8.2 2.9-14.5 8.7-18.9 5.8-4.4 15.8-6.6 30-6.6l15.5 0.4c8.3 0 15.9 2.1 22.5 6.4 6.7 4.3 10 9.7 10 16.1 0 2.4-0.7 4.1-2.1 5.2 -1.4 1.1-2.8 1.6-4.1 1.6h-7.3c-3.7 0-6.4-2-8.4-6 -1.9-4-6.2-6-12.9-6l-18.4-0.4c-7.2 0-10.7 2.3-10.7 7 0 2.6 2.3 4.7 6.8 6.3 4.5 1.6 10 3.1 16.5 4.3 6.4 1.2 12.9 2.7 19.4 4.5 6.5 1.7 12 4.6 16.6 8.6 4.5 4 6.8 9 6.8 15 0 8.2-2.9 14.5-8.8 18.9 -5.8 4.4-15.8 6.6-30 6.6l-18.5-0.4c-8.3 0-15.9-2.1-22.6-6.4C111.1 97.6 107.8 92.3 107.8 85.8z"/>
    <path fill="#2E2729" d="M205.1 85.8c0-2.4 0.7-4.1 2.1-5.2 1.4-1 2.8-1.6 4.1-1.6h7.3c3.7 0 6.4 2 8.4 6 1.9 4 6.2 6 12.9 6l21.4 0.4c7.2 0 10.7-2.3 10.7-7 0-3.5-4.4-6.3-13.1-8.4 -3.9-0.9-8.2-1.9-12.9-2.8 -4.7-0.9-9.4-2.1-14.1-3.4 -4.7-1.4-8.9-3-12.8-4.9 -3.9-1.9-7.1-4.4-9.5-7.7 -2.4-3.3-3.6-7.1-3.6-11.6 0-8.2 2.9-14.5 8.7-18.9 5.8-4.4 15.8-6.6 30-6.6l15.5 0.4c8.3 0 15.9 2.1 22.5 6.4 6.7 4.3 10 9.7 10 16.1 0 2.4-0.7 4.1-2.1 5.2 -1.4 1.1-2.8 1.6-4.1 1.6h-7.3c-3.7 0-6.4-2-8.4-6 -1.9-4-6.2-6-12.9-6l-18.4-0.4c-7.2 0-10.7 2.3-10.7 7 0 2.6 2.3 4.7 6.8 6.3 4.5 1.6 10 3.1 16.5 4.3 6.4 1.2 12.9 2.7 19.4 4.5 6.5 1.7 12 4.6 16.6 8.6 4.5 4 6.8 9 6.8 15 0 8.2-2.9 14.5-8.8 18.9 -5.8 4.4-15.8 6.6-30 6.6l-18.5-0.4c-8.3 0-15.9-2.1-22.6-6.4C208.5 97.6 205.1 92.3 205.1 85.8z"/>
    <path fill="#2E2729" d="M11.9 149.5l6.2-23.3c1.7-6.4 7.1-9.5 16.3-9.6h13.2c0.6 0 1.1 0.2 1.5 0.7s0.6 1 0.6 1.6v30.6c0 0.6-0.2 1.2-0.7 1.6 -0.5 0.4-1 0.6-1.6 0.6h-4.6c-0.7 0-1.2-0.2-1.7-0.6 -0.4-0.4-0.6-1-0.6-1.7v-6.2H23l-1.6 6.2c-0.2 0.7-0.5 1.2-1.1 1.7 -0.6 0.4-1.2 0.6-1.8 0.6h-4.8c-0.6 0-1.1-0.2-1.4-0.6 -0.3-0.4-0.4-0.7-0.4-1C11.8 149.9 11.8 149.7 11.9 149.5zM24.8 136.3h15.6v-12.8h-7c-1.6 0-2.9 0.4-4.1 1.3 -1.2 0.9-2 2.1-2.4 3.6L24.8 136.3z"/>
    <path fill="#2E2729" d="M56.1 150.2v-23.9c0-0.4 0.1-0.8 0.4-1.1 0.3-0.3 0.6-0.4 1.1-0.4h5.5c0.4 0 0.8 0.1 1.1 0.4 0.3 0.3 0.4 0.6 0.4 1.1v1.5c2.8-2.4 5.8-3.6 9-3.6 3.2 0 5.8 1 7.8 2.9 2 1.9 3 4.9 3 8.9v14.1c0 0.4-0.1 0.8-0.4 1.1s-0.6 0.4-1.1 0.4h-5.5c-0.4 0-0.8-0.1-1.1-0.4 -0.3-0.3-0.4-0.6-0.4-1.1v-14.1c0-3.9-1.6-5.9-4.7-5.9 -2 0-4.2 1.2-6.6 3.5v16.4c0 0.4-0.1 0.8-0.4 1.1 -0.3 0.3-0.6 0.4-1.1 0.4h-5.5c-0.4 0-0.8-0.1-1.1-0.4C56.3 151 56.1 150.7 56.1 150.2z"/>
    <path fill="#2E2729" d="M90.4 119.7v-0.8c0-0.9 0.2-1.6 0.7-2.1s1.2-0.8 2.1-0.8h3c0.9 0 1.6 0.2 2.1 0.7 0.5 0.5 0.8 1.2 0.8 2.1v0.8c0 0.9-0.2 1.6-0.7 2.1 -0.5 0.5-1.2 0.8-2.1 0.8h-3c-0.9 0-1.6-0.3-2.1-0.8C90.6 121.3 90.4 120.6 90.4 119.7zM90.5 150.2V127c0-0.4 0.1-0.8 0.4-1.1 0.3-0.3 0.6-0.4 1.1-0.4h5.5c0.4 0 0.8 0.1 1.1 0.4 0.3 0.3 0.4 0.6 0.4 1.1v23.3c0 0.4-0.1 0.8-0.4 1.1 -0.3 0.3-0.6 0.4-1.1 0.4H92c-0.4 0-0.8-0.1-1.1-0.4C90.6 151 90.5 150.7 90.5 150.2z"/>
    <path fill="#2E2729" d="M105.1 150.2v-23.9c0-0.4 0.1-0.8 0.4-1.1 0.3-0.3 0.6-0.4 1.1-0.4h5.5c0.4 0 0.8 0.1 1.1 0.4 0.3 0.3 0.4 0.6 0.4 1.1v1.5c1.2-1.1 2.3-2 3.5-2.6 1.1-0.6 2.5-0.9 4.1-0.9 3.8 0 6.7 1.6 8.7 4.7 3-3.2 6.2-4.7 9.4-4.7 3.2 0 5.7 1 7.6 2.9 1.9 1.9 2.8 4.9 2.8 8.9v14.1c0 0.4-0.1 0.8-0.4 1.1 -0.3 0.3-0.6 0.4-1.1 0.4h-5.5c-0.4 0-0.8-0.1-1.1-0.4 -0.3-0.3-0.4-0.6-0.4-1.1v-14.1c0-3.9-1.4-5.9-4.3-5.9 -1.7 0-3.5 1.2-5.4 3.8 0.1 0.7 0.1 1.4 0.1 2.1v14.1c0 0.4-0.1 0.8-0.4 1.1 -0.3 0.3-0.6 0.4-1.1 0.4h-5.5c-0.4 0-0.8-0.1-1.1-0.4 -0.3-0.3-0.4-0.6-0.4-1.1v-14.1c0-3.9-1.4-5.9-4.3-5.9 -1.8 0-3.6 1.2-5.2 3.5v16.4c0 0.4-0.1 0.8-0.4 1.1 -0.3 0.3-0.6 0.4-1.1 0.4h-5.5c-0.4 0-0.8-0.1-1.1-0.4C105.2 151 105.1 150.7 105.1 150.2z"/>
    <path fill="#2E2729" d="M157.3 150c-2.2-1.5-3.2-3.6-3.2-6.4 0-2.7 1.1-4.9 3.2-6.3 2.2-1.5 5-2.2 8.4-2.2h8.1c0-1.9-0.4-3.2-1.2-4 -0.8-0.8-2.2-1.1-4.2-1.1 -2 0-3.4 0.5-4.2 1.5 -0.8 1-1.8 1.5-3 1.5h-3.7c-0.4 0-0.8-0.1-1.1-0.4 -0.3-0.3-0.4-0.6-0.4-1.1 0-4.7 4.5-7 13.4-7 3.9 0 7 0.9 9.4 2.6 2.4 1.7 3.5 4.4 3.5 8.1v15.2c0 0.4-0.1 0.8-0.4 1.1 -0.3 0.3-0.6 0.4-1.1 0.4H176c-0.4 0-0.8-0.1-1.1-0.4 -0.3-0.3-0.4-0.6-0.4-1.1v-0.8c-2.6 1.8-5.6 2.8-8.9 2.8C162.2 152.2 159.4 151.5 157.3 150zM163.5 141.5c-0.7 0.6-1 1.3-1 2.2 0 0.9 0.3 1.6 1 2.2s1.7 0.9 2.9 0.9c2.5 0 4.9-0.7 7.3-2.2v-3.8h-7.5C165.1 140.6 164.2 140.9 163.5 141.5z"/>
    <path fill="#2E2729" d="M201.1 146.4l3.4-0.3h0.9c0.4 0 0.8 0.1 1.1 0.4 0.3 0.3 0.4 0.6 0.4 1.1v2.6c0 0.4-0.1 0.7-0.4 1s-0.6 0.5-1.1 0.5c-1.7 0.3-3.8 0.5-6.5 0.5 -7 0-10.5-3.7-10.5-11v-23.1c0-0.4 0.1-0.8 0.4-1.1 0.3-0.3 0.6-0.4 1.1-0.4h5.5c0.4 0 0.8 0.1 1.1 0.4 0.3 0.3 0.4 0.6 0.4 1.1v8.2h6.8c0.4 0 0.8 0.1 1.1 0.4s0.4 0.6 0.4 1.1v2.9c0 0.4-0.1 0.8-0.4 1.1s-0.6 0.4-1.1 0.4h-6.8v9c0 1.7 0.4 3 1.2 3.9C198.7 146 199.8 146.4 201.1 146.4z"/>
    <path fill="#2E2729" d="M210.9 119.7v-0.8c0-0.9 0.2-1.6 0.7-2.1 0.5-0.5 1.2-0.8 2.1-0.8h3c0.9 0 1.6 0.2 2.1 0.7 0.5 0.5 0.8 1.2 0.8 2.1v0.8c0 0.9-0.2 1.6-0.7 2.1 -0.5 0.5-1.2 0.8-2.1 0.8h-3c-0.9 0-1.6-0.3-2.1-0.8C211.1 121.3 210.9 120.6 210.9 119.7zM211 150.2V127c0-0.4 0.1-0.8 0.4-1.1s0.6-0.4 1.1-0.4h5.5c0.4 0 0.8 0.1 1.1 0.4 0.3 0.3 0.4 0.6 0.4 1.1v23.3c0 0.4-0.1 0.8-0.4 1.1 -0.3 0.3-0.6 0.4-1.1 0.4h-5.5c-0.4 0-0.8-0.1-1.1-0.4C211.1 151 211 150.7 211 150.2z"/>
    <path fill="#2E2729" d="M227.9 148.7c-2.5-2.4-3.8-5.8-3.8-10.4s1.3-8 3.8-10.4 6.2-3.5 11-3.5 8.4 1.2 11 3.5c2.5 2.3 3.8 5.8 3.8 10.4s-1.3 8.1-3.8 10.4c-2.5 2.4-6.2 3.5-11 3.5S230.4 151 227.9 148.7zM234.1 131.9c-1 1.3-1.5 3.4-1.5 6.3s0.5 5 1.5 6.4c1 1.3 2.6 2 4.8 2s3.8-0.7 4.8-2 1.5-3.5 1.5-6.4 -0.5-5-1.5-6.3 -2.6-2-4.8-2S235.1 130.6 234.1 131.9z"/>
    <path fill="#2E2729" d="M258.2 150.2v-23.9c0-0.4 0.1-0.8 0.4-1.1 0.3-0.3 0.6-0.4 1.1-0.4h5.5c0.4 0 0.8 0.1 1.1 0.4 0.3 0.3 0.4 0.6 0.4 1.1v1.5c2.8-2.4 5.8-3.6 9-3.6 3.2 0 5.8 1 7.8 2.9 2 1.9 3 4.9 3 8.9v14.1c0 0.4-0.1 0.8-0.4 1.1s-0.6 0.4-1.1 0.4h-5.5c-0.4 0-0.8-0.1-1.1-0.4 -0.3-0.3-0.4-0.6-0.4-1.1v-14.1c0-3.9-1.6-5.9-4.7-5.9 -2 0-4.2 1.2-6.6 3.5v16.4c0 0.4-0.1 0.8-0.4 1.1s-0.6 0.4-1.1 0.4h-5.5c-0.4 0-0.8-0.1-1.1-0.4C258.4 151 258.2 150.7 258.2 150.2z"/>
  </g>
</svg>
