<svg xmlns="http://www.w3.org/2000/svg" class="logo" viewBox="0 0 388.7 195.3" enable-background="new 0 0 388.7 195.3"><g class="large-rock"><path fill="#E6E7E8" d="M251.5 63.2h64.2L337.6 80l4.9 17 43 59.8-38.1 13.4-61.3-7-72 2.8-10.5-19.7v-22.6l15.5-9.2 15.5-29.4z"/><path fill="#D1D3D4" d="M213.6 164.4l31.7-20 22.4-1.6 23.3 2.8 24.7-14 34.5 9.4 35.3 15.8-38.1 13.4-61.3-7-33.2.9z"/><path fill="#D1D3D4" d="M227.2 100.4l22.2 1 6.3 6.8-23.2 8.5-20 16.2-8.9-7.9 13.1-9.2z"/><path fill="#D1D3D4" d="M299.6 98.2l3.6-9.1 13.7-4.5 18.6 15.4-18-5.6-11.6 5.6z"/><path fill="#D1D3D4" d="M253.5 115.9l29-7.7 16.7 4.3 11.3 8.5-6.3 7.8-21.1 1.4-18.3 2.3-17.6-.9-7.7 8.3-14.8-4.9z"/></g><g class="small-rock-1"><path fill="#F1F2F2" d="M306.5 175.2l13.6-14.6 27.5-4.3 11.3 9.5 5.7 18.7-25.4 9-27.2-3.6z"/><path fill="#D1D3D4" d="M306.5 174.9l24.7 7.6 16.9-1.5 12.7-9.2 3.8 12.5-25.4 8.9-27.2-3.6z"/><path fill="none" stroke="#fcf5f2" stroke-width="4" stroke-miterlimit="10" d="M306.5 174.9l13.6-14.6 27.5-4.2 11.3 9.4 5.7 18.8-25.4 8.9-27.2-3.6z"/></g><g class="small-rock-2"><path fill="#F1F2F2" d="M265.6 158l15.3-4 15.2 11.6 3.7 15-31.2 9.1-14.8-12.8 6.8-17.6z"/><path fill="#E6E7E8" d="M258.9 163.5l14.3 14.7 16-7.7h8.1l2.5 10.1-31.2 9.1-14.3-14.4z"/><path fill="none" stroke="#fcf5f2" stroke-width="4" stroke-miterlimit="10" d="M265.6 158l15.3-4 15.2 11.6 3.7 15-31.2 9.1-14.8-12.8 6.8-17.6z"/></g><g fill="none" stroke="#F7E9E0" stroke-width="4" stroke-miterlimit="10"><path d="M17 97.9C9.5 90.7 5.7 79.6 5.7 64.5c0-15.1 3.8-26.2 11.3-33.4 7.5-7.2 18.9-10.8 34-10.8h13.6c9.2 0 17.4 2.4 24.5 7.2 7.1 4.8 10.6 11.4 10.6 19.7 0 2.4-.7 4.1-2.1 5.2-1.4 1-2.8 1.6-4.1 1.6h-7.3c-3.7 0-6.7-2.2-8.7-6.7-3-6.4-8-9.6-15-9.6H51.6c-8.9 0-14.9 1.9-18.1 5.7-3.2 3.8-4.8 10.9-4.8 21.2 0 10.3 1.6 17.4 4.8 21.3 3.2 3.8 9.2 5.8 18.1 5.8h12.1c7 0 12-3.2 14.9-9.6 2.1-4.5 5-6.8 8.8-6.8h7.3c1.9 0 3.4.7 4.5 2.1 1.1 1.4 1.7 3 1.7 4.6 0 8.3-3.5 14.9-10.6 19.7-7.1 4.8-15.2 7.2-24.5 7.2H51c-15.1-.2-26.4-3.8-34-11zM107.8 85.8c0-2.4.7-4.1 2.1-5.2 1.4-1 2.8-1.6 4.1-1.6h7.3c3.7 0 6.4 2 8.4 6 1.9 4 6.2 6 12.9 6l21.4.4c7.2 0 10.7-2.3 10.7-7 0-3.5-4.4-6.3-13.1-8.4-3.9-.9-8.2-1.9-12.9-2.8-4.7-.9-9.4-2.1-14.1-3.4-4.7-1.4-8.9-3-12.8-4.9-3.9-1.9-7.1-4.4-9.5-7.7-2.4-3.3-3.6-7.1-3.6-11.6 0-8.2 2.9-14.5 8.7-18.9 5.8-4.4 15.8-6.6 30-6.6l15.5.4c8.3 0 15.9 2.1 22.5 6.4 6.7 4.3 10 9.7 10 16.1 0 2.4-.7 4.1-2.1 5.2-1.4 1.1-2.8 1.6-4.1 1.6h-7.3c-3.7 0-6.4-2-8.4-6-1.9-4-6.2-6-12.9-6l-18.4-.4c-7.2 0-10.7 2.3-10.7 7 0 2.6 2.3 4.7 6.8 6.3 4.5 1.6 10 3.1 16.5 4.3 6.4 1.2 12.9 2.7 19.4 4.5 6.5 1.7 12 4.6 16.6 8.6 4.5 4 6.8 9 6.8 15 0 8.2-2.9 14.5-8.8 18.9-5.8 4.4-15.8 6.6-30 6.6l-18.5-.4c-8.3 0-15.9-2.1-22.6-6.4-6.6-4.2-9.9-9.5-9.9-16zM205.1 85.8c0-2.4.7-4.1 2.1-5.2 1.4-1 2.8-1.6 4.1-1.6h7.3c3.7 0 6.4 2 8.4 6 1.9 4 6.2 6 12.9 6l21.4.4c7.2 0 10.7-2.3 10.7-7 0-3.5-4.4-6.3-13.1-8.4-3.9-.9-8.2-1.9-12.9-2.8-4.7-.9-9.4-2.1-14.1-3.4-4.7-1.4-8.9-3-12.8-4.9-3.9-1.9-7.1-4.4-9.5-7.7-2.4-3.3-3.6-7.1-3.6-11.6 0-8.2 2.9-14.5 8.7-18.9 5.8-4.4 15.8-6.6 30-6.6l15.5.4c8.3 0 15.9 2.1 22.5 6.4 6.7 4.3 10 9.7 10 16.1 0 2.4-.7 4.1-2.1 5.2-1.4 1.1-2.8 1.6-4.1 1.6h-7.3c-3.7 0-6.4-2-8.4-6-1.9-4-6.2-6-12.9-6l-18.4-.4c-7.2 0-10.7 2.3-10.7 7 0 2.6 2.3 4.7 6.8 6.3 4.5 1.6 10 3.1 16.5 4.3 6.4 1.2 12.9 2.7 19.4 4.5 6.5 1.7 12 4.6 16.6 8.6 4.5 4 6.8 9 6.8 15 0 8.2-2.9 14.5-8.8 18.9-5.8 4.4-15.8 6.6-30 6.6l-18.5-.4c-8.3 0-15.9-2.1-22.6-6.4-6.5-4.2-9.9-9.5-9.9-16zM11.9 149.5l6.2-23.3c1.7-6.4 7.1-9.5 16.3-9.6h13.2c.6 0 1.1.2 1.5.7s.6 1 .6 1.6v30.6c0 .6-.2 1.2-.7 1.6-.5.4-1 .6-1.6.6h-4.6c-.7 0-1.2-.2-1.7-.6-.4-.4-.6-1-.6-1.7v-6.2H23l-1.6 6.2c-.2.7-.5 1.2-1.1 1.7-.6.4-1.2.6-1.8.6h-4.8c-.6 0-1.1-.2-1.4-.6-.3-.4-.4-.7-.4-1-.1-.2-.1-.4 0-.6zm12.9-13.2h15.6v-12.8h-7c-1.6 0-2.9.4-4.1 1.3-1.2.9-2 2.1-2.4 3.6l-2.1 7.9zM56.1 150.2v-23.9c0-.4.1-.8.4-1.1.3-.3.6-.4 1.1-.4h5.5c.4 0 .8.1 1.1.4.3.3.4.6.4 1.1v1.5c2.8-2.4 5.8-3.6 9-3.6s5.8 1 7.8 2.9 3 4.9 3 8.9v14.1c0 .4-.1.8-.4 1.1s-.6.4-1.1.4h-5.5c-.4 0-.8-.1-1.1-.4-.3-.3-.4-.6-.4-1.1V136c0-3.9-1.6-5.9-4.7-5.9-2 0-4.2 1.2-6.6 3.5V150c0 .4-.1.8-.4 1.1-.3.3-.6.4-1.1.4h-5.5c-.4 0-.8-.1-1.1-.4-.2-.1-.4-.4-.4-.9zM90.4 119.7v-.8c0-.9.2-1.6.7-2.1s1.2-.8 2.1-.8h3c.9 0 1.6.2 2.1.7.5.5.8 1.2.8 2.1v.8c0 .9-.2 1.6-.7 2.1-.5.5-1.2.8-2.1.8h-3c-.9 0-1.6-.3-2.1-.8-.6-.4-.8-1.1-.8-2zm.1 30.5V127c0-.4.1-.8.4-1.1.3-.3.6-.4 1.1-.4h5.5c.4 0 .8.1 1.1.4.3.3.4.6.4 1.1v23.3c0 .4-.1.8-.4 1.1-.3.3-.6.4-1.1.4H92c-.4 0-.8-.1-1.1-.4-.3-.4-.4-.7-.4-1.2zM105.1 150.2v-23.9c0-.4.1-.8.4-1.1.3-.3.6-.4 1.1-.4h5.5c.4 0 .8.1 1.1.4.3.3.4.6.4 1.1v1.5c1.2-1.1 2.3-2 3.5-2.6 1.1-.6 2.5-.9 4.1-.9 3.8 0 6.7 1.6 8.7 4.7 3-3.2 6.2-4.7 9.4-4.7s5.7 1 7.6 2.9c1.9 1.9 2.8 4.9 2.8 8.9v14.1c0 .4-.1.8-.4 1.1-.3.3-.6.4-1.1.4h-5.5c-.4 0-.8-.1-1.1-.4-.3-.3-.4-.6-.4-1.1v-14.1c0-3.9-1.4-5.9-4.3-5.9-1.7 0-3.5 1.2-5.4 3.8.1.7.1 1.4.1 2.1v14.1c0 .4-.1.8-.4 1.1-.3.3-.6.4-1.1.4h-5.5c-.4 0-.8-.1-1.1-.4-.3-.3-.4-.6-.4-1.1v-14.1c0-3.9-1.4-5.9-4.3-5.9-1.8 0-3.6 1.2-5.2 3.5v16.4c0 .4-.1.8-.4 1.1-.3.3-.6.4-1.1.4h-5.5c-.4 0-.8-.1-1.1-.4-.3-.2-.4-.5-.4-1zM157.3 150c-2.2-1.5-3.2-3.6-3.2-6.4 0-2.7 1.1-4.9 3.2-6.3 2.2-1.5 5-2.2 8.4-2.2h8.1c0-1.9-.4-3.2-1.2-4-.8-.8-2.2-1.1-4.2-1.1s-3.4.5-4.2 1.5c-.8 1-1.8 1.5-3 1.5h-3.7c-.4 0-.8-.1-1.1-.4-.3-.3-.4-.6-.4-1.1 0-4.7 4.5-7 13.4-7 3.9 0 7 .9 9.4 2.6 2.4 1.7 3.5 4.4 3.5 8.1v15.2c0 .4-.1.8-.4 1.1-.3.3-.6.4-1.1.4H176c-.4 0-.8-.1-1.1-.4-.3-.3-.4-.6-.4-1.1v-.8c-2.6 1.8-5.6 2.8-8.9 2.8-3.4-.2-6.2-.9-8.3-2.4zm6.2-8.5c-.7.6-1 1.3-1 2.2 0 .9.3 1.6 1 2.2s1.7.9 2.9.9c2.5 0 4.9-.7 7.3-2.2v-3.8h-7.5c-1.1-.2-2 .1-2.7.7zM201.1 146.4l3.4-.3h.9c.4 0 .8.1 1.1.4.3.3.4.6.4 1.1v2.6c0 .4-.1.7-.4 1s-.6.5-1.1.5c-1.7.3-3.8.5-6.5.5-7 0-10.5-3.7-10.5-11v-23.1c0-.4.1-.8.4-1.1.3-.3.6-.4 1.1-.4h5.5c.4 0 .8.1 1.1.4.3.3.4.6.4 1.1v8.2h6.8c.4 0 .8.1 1.1.4s.4.6.4 1.1v2.9c0 .4-.1.8-.4 1.1s-.6.4-1.1.4h-6.8v9c0 1.7.4 3 1.2 3.9.6.9 1.7 1.3 3 1.3zM210.9 119.7v-.8c0-.9.2-1.6.7-2.1.5-.5 1.2-.8 2.1-.8h3c.9 0 1.6.2 2.1.7.5.5.8 1.2.8 2.1v.8c0 .9-.2 1.6-.7 2.1-.5.5-1.2.8-2.1.8h-3c-.9 0-1.6-.3-2.1-.8-.6-.4-.8-1.1-.8-2zm.1 30.5V127c0-.4.1-.8.4-1.1s.6-.4 1.1-.4h5.5c.4 0 .8.1 1.1.4.3.3.4.6.4 1.1v23.3c0 .4-.1.8-.4 1.1-.3.3-.6.4-1.1.4h-5.5c-.4 0-.8-.1-1.1-.4-.3-.4-.4-.7-.4-1.2zM227.9 148.7c-2.5-2.4-3.8-5.8-3.8-10.4s1.3-8 3.8-10.4 6.2-3.5 11-3.5 8.4 1.2 11 3.5c2.5 2.3 3.8 5.8 3.8 10.4s-1.3 8.1-3.8 10.4c-2.5 2.4-6.2 3.5-11 3.5s-8.5-1.2-11-3.5zm6.2-16.8c-1 1.3-1.5 3.4-1.5 6.3s.5 5 1.5 6.4c1 1.3 2.6 2 4.8 2s3.8-.7 4.8-2 1.5-3.5 1.5-6.4-.5-5-1.5-6.3-2.6-2-4.8-2-3.8.7-4.8 2zM258.2 150.2v-23.9c0-.4.1-.8.4-1.1.3-.3.6-.4 1.1-.4h5.5c.4 0 .8.1 1.1.4.3.3.4.6.4 1.1v1.5c2.8-2.4 5.8-3.6 9-3.6s5.8 1 7.8 2.9 3 4.9 3 8.9v14.1c0 .4-.1.8-.4 1.1s-.6.4-1.1.4h-5.5c-.4 0-.8-.1-1.1-.4-.3-.3-.4-.6-.4-1.1V136c0-3.9-1.6-5.9-4.7-5.9-2 0-4.2 1.2-6.6 3.5V150c0 .4-.1.8-.4 1.1s-.6.4-1.1.4h-5.5c-.4 0-.8-.1-1.1-.4-.2-.1-.4-.4-.4-.9z"/></g><g class="logo-group" fill="#2E2729"><path d="M17 97.9C9.5 90.7 5.7 79.6 5.7 64.5c0-15.1 3.8-26.2 11.3-33.4 7.5-7.2 18.9-10.8 34-10.8h13.6c9.2 0 17.4 2.4 24.5 7.2 7.1 4.8 10.6 11.4 10.6 19.7 0 2.4-.7 4.1-2.1 5.2-1.4 1-2.8 1.6-4.1 1.6h-7.3c-3.7 0-6.7-2.2-8.7-6.7-3-6.4-8-9.6-15-9.6H51.6c-8.9 0-14.9 1.9-18.1 5.7-3.2 3.8-4.8 10.9-4.8 21.2 0 10.3 1.6 17.4 4.8 21.3 3.2 3.8 9.2 5.8 18.1 5.8h12.1c7 0 12-3.2 14.9-9.6 2.1-4.5 5-6.8 8.8-6.8h7.3c1.9 0 3.4.7 4.5 2.1 1.1 1.4 1.7 3 1.7 4.6 0 8.3-3.5 14.9-10.6 19.7-7.1 4.8-15.2 7.2-24.5 7.2H51c-15.1-.2-26.4-3.8-34-11zM107.8 85.8c0-2.4.7-4.1 2.1-5.2 1.4-1 2.8-1.6 4.1-1.6h7.3c3.7 0 6.4 2 8.4 6 1.9 4 6.2 6 12.9 6l21.4.4c7.2 0 10.7-2.3 10.7-7 0-3.5-4.4-6.3-13.1-8.4-3.9-.9-8.2-1.9-12.9-2.8-4.7-.9-9.4-2.1-14.1-3.4-4.7-1.4-8.9-3-12.8-4.9-3.9-1.9-7.1-4.4-9.5-7.7-2.4-3.3-3.6-7.1-3.6-11.6 0-8.2 2.9-14.5 8.7-18.9 5.8-4.4 15.8-6.6 30-6.6l15.5.4c8.3 0 15.9 2.1 22.5 6.4 6.7 4.3 10 9.7 10 16.1 0 2.4-.7 4.1-2.1 5.2-1.4 1.1-2.8 1.6-4.1 1.6h-7.3c-3.7 0-6.4-2-8.4-6-1.9-4-6.2-6-12.9-6l-18.4-.4c-7.2 0-10.7 2.3-10.7 7 0 2.6 2.3 4.7 6.8 6.3 4.5 1.6 10 3.1 16.5 4.3 6.4 1.2 12.9 2.7 19.4 4.5 6.5 1.7 12 4.6 16.6 8.6 4.5 4 6.8 9 6.8 15 0 8.2-2.9 14.5-8.8 18.9-5.8 4.4-15.8 6.6-30 6.6l-18.5-.4c-8.3 0-15.9-2.1-22.6-6.4-6.6-4.2-9.9-9.5-9.9-16zM205.1 85.8c0-2.4.7-4.1 2.1-5.2 1.4-1 2.8-1.6 4.1-1.6h7.3c3.7 0 6.4 2 8.4 6 1.9 4 6.2 6 12.9 6l21.4.4c7.2 0 10.7-2.3 10.7-7 0-3.5-4.4-6.3-13.1-8.4-3.9-.9-8.2-1.9-12.9-2.8-4.7-.9-9.4-2.1-14.1-3.4-4.7-1.4-8.9-3-12.8-4.9-3.9-1.9-7.1-4.4-9.5-7.7-2.4-3.3-3.6-7.1-3.6-11.6 0-8.2 2.9-14.5 8.7-18.9 5.8-4.4 15.8-6.6 30-6.6l15.5.4c8.3 0 15.9 2.1 22.5 6.4 6.7 4.3 10 9.7 10 16.1 0 2.4-.7 4.1-2.1 5.2-1.4 1.1-2.8 1.6-4.1 1.6h-7.3c-3.7 0-6.4-2-8.4-6-1.9-4-6.2-6-12.9-6l-18.4-.4c-7.2 0-10.7 2.3-10.7 7 0 2.6 2.3 4.7 6.8 6.3 4.5 1.6 10 3.1 16.5 4.3 6.4 1.2 12.9 2.7 19.4 4.5 6.5 1.7 12 4.6 16.6 8.6 4.5 4 6.8 9 6.8 15 0 8.2-2.9 14.5-8.8 18.9-5.8 4.4-15.8 6.6-30 6.6l-18.5-.4c-8.3 0-15.9-2.1-22.6-6.4-6.5-4.2-9.9-9.5-9.9-16zM11.9 149.5l6.2-23.3c1.7-6.4 7.1-9.5 16.3-9.6h13.2c.6 0 1.1.2 1.5.7s.6 1 .6 1.6v30.6c0 .6-.2 1.2-.7 1.6-.5.4-1 .6-1.6.6h-4.6c-.7 0-1.2-.2-1.7-.6-.4-.4-.6-1-.6-1.7v-6.2H23l-1.6 6.2c-.2.7-.5 1.2-1.1 1.7-.6.4-1.2.6-1.8.6h-4.8c-.6 0-1.1-.2-1.4-.6-.3-.4-.4-.7-.4-1-.1-.2-.1-.4 0-.6zm12.9-13.2h15.6v-12.8h-7c-1.6 0-2.9.4-4.1 1.3-1.2.9-2 2.1-2.4 3.6l-2.1 7.9zM56.1 150.2v-23.9c0-.4.1-.8.4-1.1.3-.3.6-.4 1.1-.4h5.5c.4 0 .8.1 1.1.4.3.3.4.6.4 1.1v1.5c2.8-2.4 5.8-3.6 9-3.6s5.8 1 7.8 2.9 3 4.9 3 8.9v14.1c0 .4-.1.8-.4 1.1s-.6.4-1.1.4h-5.5c-.4 0-.8-.1-1.1-.4-.3-.3-.4-.6-.4-1.1V136c0-3.9-1.6-5.9-4.7-5.9-2 0-4.2 1.2-6.6 3.5V150c0 .4-.1.8-.4 1.1-.3.3-.6.4-1.1.4h-5.5c-.4 0-.8-.1-1.1-.4-.2-.1-.4-.4-.4-.9zM90.4 119.7v-.8c0-.9.2-1.6.7-2.1s1.2-.8 2.1-.8h3c.9 0 1.6.2 2.1.7.5.5.8 1.2.8 2.1v.8c0 .9-.2 1.6-.7 2.1-.5.5-1.2.8-2.1.8h-3c-.9 0-1.6-.3-2.1-.8-.6-.4-.8-1.1-.8-2zm.1 30.5V127c0-.4.1-.8.4-1.1.3-.3.6-.4 1.1-.4h5.5c.4 0 .8.1 1.1.4.3.3.4.6.4 1.1v23.3c0 .4-.1.8-.4 1.1-.3.3-.6.4-1.1.4H92c-.4 0-.8-.1-1.1-.4-.3-.4-.4-.7-.4-1.2zM105.1 150.2v-23.9c0-.4.1-.8.4-1.1.3-.3.6-.4 1.1-.4h5.5c.4 0 .8.1 1.1.4.3.3.4.6.4 1.1v1.5c1.2-1.1 2.3-2 3.5-2.6 1.1-.6 2.5-.9 4.1-.9 3.8 0 6.7 1.6 8.7 4.7 3-3.2 6.2-4.7 9.4-4.7s5.7 1 7.6 2.9c1.9 1.9 2.8 4.9 2.8 8.9v14.1c0 .4-.1.8-.4 1.1-.3.3-.6.4-1.1.4h-5.5c-.4 0-.8-.1-1.1-.4-.3-.3-.4-.6-.4-1.1v-14.1c0-3.9-1.4-5.9-4.3-5.9-1.7 0-3.5 1.2-5.4 3.8.1.7.1 1.4.1 2.1v14.1c0 .4-.1.8-.4 1.1-.3.3-.6.4-1.1.4h-5.5c-.4 0-.8-.1-1.1-.4-.3-.3-.4-.6-.4-1.1v-14.1c0-3.9-1.4-5.9-4.3-5.9-1.8 0-3.6 1.2-5.2 3.5v16.4c0 .4-.1.8-.4 1.1-.3.3-.6.4-1.1.4h-5.5c-.4 0-.8-.1-1.1-.4-.3-.2-.4-.5-.4-1zM157.3 150c-2.2-1.5-3.2-3.6-3.2-6.4 0-2.7 1.1-4.9 3.2-6.3 2.2-1.5 5-2.2 8.4-2.2h8.1c0-1.9-.4-3.2-1.2-4-.8-.8-2.2-1.1-4.2-1.1s-3.4.5-4.2 1.5c-.8 1-1.8 1.5-3 1.5h-3.7c-.4 0-.8-.1-1.1-.4-.3-.3-.4-.6-.4-1.1 0-4.7 4.5-7 13.4-7 3.9 0 7 .9 9.4 2.6 2.4 1.7 3.5 4.4 3.5 8.1v15.2c0 .4-.1.8-.4 1.1-.3.3-.6.4-1.1.4H176c-.4 0-.8-.1-1.1-.4-.3-.3-.4-.6-.4-1.1v-.8c-2.6 1.8-5.6 2.8-8.9 2.8-3.4-.2-6.2-.9-8.3-2.4zm6.2-8.5c-.7.6-1 1.3-1 2.2 0 .9.3 1.6 1 2.2s1.7.9 2.9.9c2.5 0 4.9-.7 7.3-2.2v-3.8h-7.5c-1.1-.2-2 .1-2.7.7zM201.1 146.4l3.4-.3h.9c.4 0 .8.1 1.1.4.3.3.4.6.4 1.1v2.6c0 .4-.1.7-.4 1s-.6.5-1.1.5c-1.7.3-3.8.5-6.5.5-7 0-10.5-3.7-10.5-11v-23.1c0-.4.1-.8.4-1.1.3-.3.6-.4 1.1-.4h5.5c.4 0 .8.1 1.1.4.3.3.4.6.4 1.1v8.2h6.8c.4 0 .8.1 1.1.4s.4.6.4 1.1v2.9c0 .4-.1.8-.4 1.1s-.6.4-1.1.4h-6.8v9c0 1.7.4 3 1.2 3.9.6.9 1.7 1.3 3 1.3zM210.9 119.7v-.8c0-.9.2-1.6.7-2.1.5-.5 1.2-.8 2.1-.8h3c.9 0 1.6.2 2.1.7.5.5.8 1.2.8 2.1v.8c0 .9-.2 1.6-.7 2.1-.5.5-1.2.8-2.1.8h-3c-.9 0-1.6-.3-2.1-.8-.6-.4-.8-1.1-.8-2zm.1 30.5V127c0-.4.1-.8.4-1.1s.6-.4 1.1-.4h5.5c.4 0 .8.1 1.1.4.3.3.4.6.4 1.1v23.3c0 .4-.1.8-.4 1.1-.3.3-.6.4-1.1.4h-5.5c-.4 0-.8-.1-1.1-.4-.3-.4-.4-.7-.4-1.2zM227.9 148.7c-2.5-2.4-3.8-5.8-3.8-10.4s1.3-8 3.8-10.4 6.2-3.5 11-3.5 8.4 1.2 11 3.5c2.5 2.3 3.8 5.8 3.8 10.4s-1.3 8.1-3.8 10.4c-2.5 2.4-6.2 3.5-11 3.5s-8.5-1.2-11-3.5zm6.2-16.8c-1 1.3-1.5 3.4-1.5 6.3s.5 5 1.5 6.4c1 1.3 2.6 2 4.8 2s3.8-.7 4.8-2 1.5-3.5 1.5-6.4-.5-5-1.5-6.3-2.6-2-4.8-2-3.8.7-4.8 2zM258.2 150.2v-23.9c0-.4.1-.8.4-1.1.3-.3.6-.4 1.1-.4h5.5c.4 0 .8.1 1.1.4.3.3.4.6.4 1.1v1.5c2.8-2.4 5.8-3.6 9-3.6s5.8 1 7.8 2.9 3 4.9 3 8.9v14.1c0 .4-.1.8-.4 1.1s-.6.4-1.1.4h-5.5c-.4 0-.8-.1-1.1-.4-.3-.3-.4-.6-.4-1.1V136c0-3.9-1.6-5.9-4.7-5.9-2 0-4.2 1.2-6.6 3.5V150c0 .4-.1.8-.4 1.1s-.6.4-1.1.4h-5.5c-.4 0-.8-.1-1.1-.4-.2-.1-.4-.4-.4-.9z"/></g></svg>