<svg xmlns="http://www.w3.org/2000/svg" viewBox="0 0 263.8 213.2"><path fill="#E6E7E8" d="M60.7 62l26.1-30 69.4-9.4 19 30.7 29.2 15.8 29.2 103.4-42.6 15-68.7-7.9-80.5 3.2-11.9-47.4 17.4-10.2 5.5-61.6z"/><path fill="#A7A9AC" d="M42.2 182.7l-9.8-39.1L47.2 156l35.5-4.3L99.4 181z"/><path fill="#BCBEC0" d="M82.7 151.7h114.5l15.5-54.5 21.2 74.9-50.9 16.2-68.7-7.9-14.9.6z"/><circle fill="#F1F2F2" stroke="#000" stroke-width="4" stroke-miterlimit="10" cx="86.4" cy="80.9" r="16.3"/><circle fill="#F1F2F2" stroke="#000" stroke-width="4" stroke-miterlimit="10" cx="137.7" cy="68.6" r="20.5"/><path fill="#F1F2F2" d="M171.5 96c-2.2-6.9-1.1 2.7-33.3 12.8-38.3 12.1-36.3 5.1-33.3 12.8 3 7.7 20.3 8.2 38.7 1.2 18.4-7 30.4-18.9 27.9-26.8z"/><path fill="none" stroke="#000" stroke-width="4" stroke-miterlimit="10" d="M171.5 96c-2.2-6.9-1.1 2.7-33.3 12.8-38.3 12.1-36.3 5.1-33.3 12.8 3 7.7 20.3 8.2 38.7 1.2 18.4-7 30.4-18.9 27.9-26.8z"/><circle stroke="#000" stroke-width="2" stroke-miterlimit="10" cx="88.4" cy="80.9" r="5.6"/><circle stroke="#000" stroke-width="4" stroke-miterlimit="10" cx="137.7" cy="68.6" r="5.6"/><path fill="none" stroke="#000" stroke-width="4" stroke-miterlimit="10" d="M61 61.6l26-30 69.5-9.4 18.9 30.7 29.3 15.8 29.2 103.4-42.7 15-68.6-7.9-80.6 3.2L30.2 135l17.4-10.2 5.5-61.6z"/></svg>