<svg width="100" height="64" xmlns="http://www.w3.org/2000/svg" fill-rule="evenodd" clip-rule="evenodd" stroke-linejoin="round" stroke-miterlimit="1.414"><g><path d="M26.265 10.894c14.505 0 26.265 11.888 26.265 26.553C52.53 52.112 40.77 64 26.265 64 11.76 64 0 52.112 0 37.447c0-14.665 11.76-26.553 26.265-26.553zM49.537 0C67.017 0 81.19 14.327 81.19 32c0 17.673-14.172 32-31.653 32-17.48 0-31.653-14.327-31.653-32 0-17.673 14.172-32 31.653-32zM81.19 25.966c10.388 0 18.81 8.514 18.81 19.017S91.578 64 81.19 64c-10.39 0-18.81-8.514-18.81-19.017s8.42-19.017 18.81-19.017z" fill="#fff"/></g></svg>