<?xml version="1.0" standalone="no"?>
<!DOCTYPE svg PUBLIC "-//W3C//DTD SVG 1.1//EN" "http://www.w3.org/Graphics/SVG/1.1/DTD/svg11.dtd">
<svg width="950px" height="670px" version="1.1" xmlns="http://www.w3.org/2000/svg" xmlns:xlink="http://www.w3.org/1999/xlink" xml:space="preserve" style="fill-rule:evenodd;clip-rule:evenodd;stroke-linejoin:round;stroke-miterlimit:1.41421;">
    <g>
        <g id="Background">
            <g>
                <clipPath id="tag1">
                    <rect x="-0.53125" y="0.234375" width="950.671" height="670.679"/>
                </clipPath>
                <g clip-path="url(#tag1)">
                    <path d="M-360.148,-331.193L2200.9,-331.193L2200.9,1269.74L-360.148,1269.74L-360.148,-331.193ZM60.4418,184.394L410.87,184.162L408.211,408.06L60.4418,412.951L60.4418,184.394ZM60.4418,60.8959L413.126,60.9792L413.126,174.951L60.4418,178.747L60.4418,60.8959Z" style="fill:rgb(34,189,160);"/>
                </g>
            </g>
        </g>
        <g id="Desk">
            <g>
                <rect x="144.126" y="530.55" width="712.398" height="18.7431" style="fill:rgb(244,192,119);"/>
            </g>
            <path d="M144.126,549.293L169.215,590.904L884.769,590.904L856.524,530.55L856.524,549.293L144.126,549.293Z" style="fill:rgb(1,94,64);fill-opacity:0.196078;"/>
            <g>
                <rect x="169.215" y="549.293" width="666.149" height="6.96186" style="fill:rgb(219,169,98);"/>
            </g>
            <g>
                <rect x="201.351" y="556.255" width="18.8787" height="116.064" style="fill:rgb(244,192,119);"/>
            </g>
            <g>
                <rect x="783.864" y="556.255" width="18.8787" height="116.064" style="fill:rgb(244,192,119);"/>
            </g>
            <g>
                <rect x="201.351" y="556.255" width="18.8787" height="12.7448" style="fill:rgb(187,124,36);fill-opacity:0.498039;"/>
            </g>
            <g>
                <rect x="783.864" y="556.255" width="18.8787" height="12.7448" style="fill:rgb(187,124,36);fill-opacity:0.498039;"/>
            </g>
        </g>
        <g id="Window">
            <path d="M44.1258,412.951L430.126,412.951L430.126,37.9524L44.1258,37.9524L44.1258,412.951ZM67.1258,64.9514L407.125,64.9514L407.125,168.284L67.1258,168.284L67.1258,64.9514ZM66.8188,407.822L67.1258,189.951L407.727,189.951L407.727,407.951L66.8188,407.822Z" style="fill:white;fill-rule:nonzero;"/>
            <rect x="60.1258" y="65.0274" width="7" height="103.257" style="fill:rgb(214,215,215);fill-rule:nonzero;"/>
            <path d="M60.1258,174.951L413.126,174.951L407.126,168.284L60.1258,168.284L60.1258,174.951Z" style="fill:rgb(214,215,215);fill-rule:nonzero;"/>
            <rect x="60.4418" y="189.951" width="6.693" height="217.871" style="fill:rgb(214,215,215);fill-rule:nonzero;"/>
            <g>
                <path d="M409.345,407.853L60.4418,407.822L60.4418,412.853L415.878,412.853L409.345,407.853Z" style="fill:rgb(214,215,215);fill-rule:nonzero;"/>
            </g>
            <rect x="16.1258" y="412.951" width="440.08" height="18" style="fill:white;fill-rule:nonzero;"/>
            <rect x="41.1268" y="435.353" width="397.999" height="10.598" style="fill:white;fill-rule:nonzero;"/>
            <rect x="41.1268" y="430.951" width="397.999" height="4.402" style="fill:rgb(214,215,215);fill-rule:nonzero;"/>
            <rect x="430.126" y="43.9514" width="9" height="369" style="fill:rgb(1,94,64);fill-opacity:0.2;fill-rule:nonzero;"/>
            <g>
                <path d="M16.1258,430.951L41.1268,455.952L496.335,455.952L456.206,412.951L456.206,430.951L16.1258,430.951Z" style="fill:rgb(1,94,64);fill-opacity:0.196078;"/>
            </g>
        </g>
        <g id="Pot plant">
            <g>
                <rect x="212.81" y="503.374" width="63.4844" height="27.133" style="fill:rgb(193,113,1);"/>
            </g>
            <g>
                <rect x="208.662" y="490.812" width="71.2641" height="12.5625" style="fill:rgb(226,153,8);"/>
            </g>
            <g>
                <path d="M212.81,503.374L276.294,503.374L276.294,512.164L215.361,506.106L212.81,503.374Z" style="fill:rgb(152,87,2);"/>
            </g>
            <g>
                <path d="M260.62,464.295L275.269,459.756L275.294,465.143L260.62,469.904L260.62,464.295Z" style="fill:rgb(165,231,8);"/>
            </g>
            <g>
                <path d="M218.224,477.443L227.136,481.042L227.151,476.771L218.224,472.996L218.224,477.443Z" style="fill:rgb(165,231,8);"/>
            </g>
            <g>
                <path d="M228.117,460.136L237.029,463.735L237.044,459.464L228.117,455.689L228.117,460.136Z" style="fill:rgb(165,231,8);"/>
            </g>
            <g>
                <rect x="246.16" y="445.361" width="8.23307" height="45.77" style="fill:rgb(5,245,53);"/>
            </g>
            <g>
                <rect x="235.784" y="450.478" width="8.23307" height="40.3066" style="fill:rgb(5,245,53);"/>
            </g>
            <g>
                <rect x="225.449" y="469.112" width="8.23307" height="22.019" style="fill:rgb(5,245,53);"/>
            </g>
            <g>
                <rect x="246.16" y="445.361" width="8.23307" height="45.77" style="fill:rgb(165,231,8);"/>
            </g>
            <g>
                <rect x="235.784" y="450.478" width="8.23307" height="40.3066" style="fill:rgb(165,231,8);"/>
            </g>
            <g>
                <rect x="225.449" y="469.112" width="8.23307" height="22.019" style="fill:rgb(165,231,8);"/>
            </g>
            <g>
                <rect x="256.743" y="449.314" width="8.23307" height="41.5856" style="fill:rgb(165,231,8);"/>
            </g>
            <g>
                <rect x="246.16" y="471.347" width="8.23307" height="3.31334" style="fill:rgb(179,162,14);"/>
            </g>
            <g>
                <rect x="235.784" y="473.362" width="8.23307" height="2.91783" style="fill:rgb(179,162,14);"/>
            </g>
            <g>
                <rect x="225.449" y="481.613" width="8.23307" height="2.91309" style="fill:rgb(179,162,14);"/>
            </g>
            <g>
                <rect x="256.743" y="472.924" width="8.23307" height="3.01042" style="fill:rgb(179,162,14);"/>
            </g>
            <g>
                <rect x="246.16" y="445.361" width="8.23307" height="3.31334" style="fill:rgb(179,162,14);"/>
            </g>
            <g>
                <rect x="235.784" y="450.478" width="8.23307" height="2.91783" style="fill:rgb(179,162,14);"/>
            </g>
            <g>
                <rect x="225.449" y="469" width="8.23307" height="2.92051" style="fill:rgb(179,162,14);"/>
            </g>
            <g>
                <rect x="256.743" y="449.314" width="8.23307" height="3.01042" style="fill:rgb(179,162,14);"/>
            </g>
            <g>
                <path d="M264.976,462.852L267.957,462.064L267.913,467.578L264.976,468.486L264.976,462.852Z" style="fill:rgb(179,162,14);"/>
            </g>
            <g>
                <path d="M222.688,479.26L225.449,480.413L225.449,476.066L222.688,474.875L222.688,479.26Z" style="fill:rgb(179,162,14);"/>
            </g>
            <g>
                <path d="M233.012,462.112L235.773,463.265L235.773,458.919L233.012,457.727L233.012,462.112Z" style="fill:rgb(179,162,14);"/>
            </g>
        </g>
        <g id="Computer">
            <g>
                <path d="M493.016,495.924L545.67,495.442C545.67,495.442 544.154,508.489 556.938,526.162C558.574,528.423 556.669,530.538 556.669,530.538L430.436,530.538C430.436,530.538 428.812,529.031 430.436,526.753C443.131,508.957 441.55,495.924 441.55,495.924L493.016,495.924L493.016,495.924Z" style="fill:rgb(246,246,246);"/>
            </g>
            <g>
                <path d="M441.55,495.894L545.643,495.779C545.643,495.779 545.278,502.889 548.563,510.773C550.316,514.982 441.398,501.236 441.543,499.279C441.694,497.239 441.55,495.894 441.55,495.894Z" style="fill:rgb(150,150,150);fill-opacity:0.501961;"/>
            </g>
            <g>
                <path d="M661.327,268.962L331.461,268.962C322.87,268.962 315.841,275.991 315.841,284.581L315.841,480.354C315.841,488.945 322.87,495.974 331.461,495.974L661.327,495.974C669.916,495.974 676.946,488.945 676.946,480.354L676.946,284.581C676.946,275.991 669.916,268.962 661.327,268.962" style="fill:rgb(246,246,246);fill-rule:nonzero;"/>
            </g>
            <g>
                <rect x="333.335" y="286.273" width="326.8" height="172" style="fill:rgb(255,219,215);"/>
            </g>
            <g>
                <rect x="410.87" y="325.088" width="171.127" height="99.2681" style="fill:white;fill-opacity:0.843137;"/>
            </g>
            <g>
                <rect x="410.87" y="325.088" width="42.848" height="99.2681" style="fill:rgb(137,137,137);"/>
            </g>
            <g>
                <g>
                    <rect x="410.87" y="336" width="42.848" height="15.5776" style="fill:rgb(194,194,194);"/>
                </g>
                <g>
                    <g>
                        <path d="M417.939,339.314C419.935,339.314 421.553,340.932 421.553,342.928C421.553,344.924 419.935,346.541 417.939,346.541C415.944,346.541 414.326,344.924 414.326,342.928C414.326,340.932 415.944,339.314 417.939,339.314Z" style="fill:rgb(241,241,241);"/>
                    </g>
                    <g>
                        <path d="M417.939,341.266C418.401,341.266 418.775,341.722 418.775,342.284C418.775,342.846 418.401,343.302 417.939,343.302C417.478,343.302 417.103,342.846 417.103,342.284C417.103,341.722 417.478,341.266 417.939,341.266Z" style="fill:rgb(214,214,214);"/>
                    </g>
                    <g>
                        <path d="M417.946,343.302C418.76,343.302 419.419,344.027 419.419,344.922C419.419,345.816 418.76,346.541 417.946,346.541C417.132,346.541 416.473,345.816 416.473,344.922C416.473,344.027 417.132,343.302 417.946,343.302Z" style="fill:rgb(214,214,214);"/>
                    </g>
                </g>
                <g>
                    <rect x="425.031" y="339.314" width="9.20703" height="1.95221" style="fill:rgb(214,214,214);"/>
                </g>
                <g>
                    <rect x="425.031" y="343.029" width="24.9172" height="1.89312" style="fill:rgb(214,214,214);"/>
                </g>
                <g>
                    <rect x="425.031" y="346.541" width="7.26269" height="1.72212" style="fill:rgb(214,214,214);"/>
                </g>
            </g>
            <g>
                <g>
                    <rect x="410.87" y="352.649" width="42.848" height="15.5776" style="fill:rgb(153,153,153);"/>
                </g>
                <g>
                    <g>
                        <path d="M417.939,355.963C419.935,355.963 421.553,357.581 421.553,359.577C421.553,361.573 419.935,363.191 417.939,363.191C415.944,363.191 414.326,361.573 414.326,359.577C414.326,357.581 415.944,355.963 417.939,355.963Z" style="fill:rgb(241,241,241);"/>
                    </g>
                    <g>
                        <path d="M417.939,357.915C418.401,357.915 418.775,358.371 418.775,358.933C418.775,359.496 418.401,359.951 417.939,359.951C417.478,359.951 417.103,359.496 417.103,358.933C417.103,358.371 417.478,357.915 417.939,357.915Z" style="fill:rgb(214,214,214);"/>
                    </g>
                    <g>
                        <path d="M417.946,359.951C418.76,359.951 419.419,360.676 419.419,361.571C419.419,362.466 418.76,363.191 417.946,363.191C417.132,363.191 416.473,362.466 416.473,361.571C416.473,360.676 417.132,359.951 417.946,359.951Z" style="fill:rgb(214,214,214);"/>
                    </g>
                </g>
                <g>
                    <rect x="425.031" y="355.963" width="9.20703" height="1.95221" style="fill:rgb(214,214,214);"/>
                </g>
                <g>
                    <rect x="425.031" y="359.678" width="24.9172" height="1.89312" style="fill:rgb(214,214,214);"/>
                </g>
                <g>
                    <rect x="425.031" y="363.191" width="7.26269" height="1.72212" style="fill:rgb(214,214,214);"/>
                </g>
            </g>
            <g>
                <g>
                    <rect x="410.87" y="369.41" width="42.848" height="15.5776" style="fill:rgb(153,153,153);"/>
                </g>
                <g>
                    <g>
                        <path d="M417.939,372.724C419.935,372.724 421.553,374.342 421.553,376.338C421.553,378.334 419.935,379.952 417.939,379.952C415.944,379.952 414.326,378.334 414.326,376.338C414.326,374.342 415.944,372.724 417.939,372.724Z" style="fill:rgb(241,241,241);"/>
                    </g>
                    <g>
                        <path d="M417.939,374.676C418.401,374.676 418.775,375.132 418.775,375.694C418.775,376.257 418.401,376.712 417.939,376.712C417.478,376.712 417.103,376.257 417.103,375.694C417.103,375.132 417.478,374.676 417.939,374.676Z" style="fill:rgb(214,214,214);"/>
                    </g>
                    <g>
                        <path d="M417.946,376.712C418.76,376.712 419.419,377.437 419.419,378.332C419.419,379.226 418.76,379.952 417.946,379.952C417.132,379.952 416.473,379.226 416.473,378.332C416.473,377.437 417.132,376.712 417.946,376.712Z" style="fill:rgb(214,214,214);"/>
                    </g>
                </g>
                <g>
                    <rect x="425.031" y="372.724" width="9.20703" height="1.95221" style="fill:rgb(214,214,214);"/>
                </g>
                <g>
                    <rect x="425.031" y="376.439" width="24.9172" height="1.89312" style="fill:rgb(214,214,214);"/>
                </g>
                <g>
                    <rect x="425.031" y="379.952" width="7.26269" height="1.72212" style="fill:rgb(214,214,214);"/>
                </g>
            </g>
            <g>
                <g>
                    <rect x="410.87" y="386.354" width="42.848" height="15.5776" style="fill:rgb(153,153,153);"/>
                </g>
                <g>
                    <g>
                        <path d="M417.939,389.668C419.935,389.668 421.553,391.286 421.553,393.282C421.553,395.277 419.935,396.895 417.939,396.895C415.944,396.895 414.326,395.277 414.326,393.282C414.326,391.286 415.944,389.668 417.939,389.668Z" style="fill:rgb(241,241,241);"/>
                    </g>
                    <g>
                        <path d="M417.939,391.62C418.401,391.62 418.775,392.076 418.775,392.638C418.775,393.2 418.401,393.656 417.939,393.656C417.478,393.656 417.103,393.2 417.103,392.638C417.103,392.076 417.478,391.62 417.939,391.62Z" style="fill:rgb(214,214,214);"/>
                    </g>
                    <g>
                        <path d="M417.946,393.656C418.76,393.656 419.419,394.381 419.419,395.276C419.419,396.17 418.76,396.895 417.946,396.895C417.132,396.895 416.473,396.17 416.473,395.276C416.473,394.381 417.132,393.656 417.946,393.656Z" style="fill:rgb(214,214,214);"/>
                    </g>
                </g>
                <g>
                    <rect x="425.031" y="389.668" width="9.20703" height="1.95221" style="fill:rgb(214,214,214);"/>
                </g>
                <g>
                    <rect x="425.031" y="393.383" width="24.9172" height="1.89312" style="fill:rgb(214,214,214);"/>
                </g>
                <g>
                    <rect x="425.031" y="396.895" width="7.26269" height="1.72212" style="fill:rgb(214,214,214);"/>
                </g>
            </g>
            <g>
                <g>
                    <rect x="410.87" y="403.142" width="42.848" height="15.5776" style="fill:rgb(153,153,153);"/>
                </g>
                <g>
                    <g>
                        <path d="M417.939,406.456C419.935,406.456 421.553,408.074 421.553,410.07C421.553,412.066 419.935,413.684 417.939,413.684C415.944,413.684 414.326,412.066 414.326,410.07C414.326,408.074 415.944,406.456 417.939,406.456Z" style="fill:rgb(241,241,241);"/>
                    </g>
                    <g>
                        <path d="M417.939,408.408C418.401,408.408 418.775,408.864 418.775,409.426C418.775,409.989 418.401,410.444 417.939,410.444C417.478,410.444 417.103,409.989 417.103,409.426C417.103,408.864 417.478,408.408 417.939,408.408Z" style="fill:rgb(214,214,214);"/>
                    </g>
                    <g>
                        <path d="M417.946,410.444C418.76,410.444 419.419,411.169 419.419,412.064C419.419,412.958 418.76,413.684 417.946,413.684C417.132,413.684 416.473,412.958 416.473,412.064C416.473,411.169 417.132,410.444 417.946,410.444Z" style="fill:rgb(214,214,214);"/>
                    </g>
                </g>
                <g>
                    <rect x="425.031" y="406.456" width="9.20703" height="1.95221" style="fill:rgb(214,214,214);"/>
                </g>
                <g>
                    <rect x="425.031" y="410.171" width="24.9172" height="1.89312" style="fill:rgb(214,214,214);"/>
                </g>
                <g>
                    <rect x="425.031" y="413.684" width="7.26269" height="1.72212" style="fill:rgb(214,214,214);"/>
                </g>
            </g>
            <g>
                <path d="M414.736,326.78C415.428,326.78 415.989,327.341 415.989,328.033C415.989,328.726 415.428,329.287 414.736,329.287C414.044,329.287 413.483,328.726 413.483,328.033C413.483,327.341 414.044,326.78 414.736,326.78Z" style="fill:rgb(243,243,243);fill-opacity:0.6;"/>
            </g>
            <g>
                <path d="M418.575,326.78C419.267,326.78 419.829,327.341 419.829,328.033C419.829,328.726 419.267,329.287 418.575,329.287C417.883,329.287 417.322,328.726 417.322,328.033C417.322,327.341 417.883,326.78 418.575,326.78Z" style="fill:rgb(243,243,243);fill-opacity:0.6;"/>
            </g>
            <g>
                <path d="M422.415,326.78C423.107,326.78 423.668,327.341 423.668,328.033C423.668,328.726 423.107,329.287 422.415,329.287C421.722,329.287 421.161,328.726 421.161,328.033C421.161,327.341 421.722,326.78 422.415,326.78Z" style="fill:rgb(243,243,243);fill-opacity:0.6;"/>
            </g>
            <g>
                <rect x="333.335" y="286.273" width="326.8" height="5.46525" style="fill:white;fill-opacity:0.796079;"/>
            </g>
        </g>
        <g id="Keyboard">
            <g>
                <path d="M399.316,523.487L541.714,523.487L547.898,530.598L390.093,530.598L399.316,523.487Z" style="fill:rgb(207,207,207);"/>
            </g>
        </g>
        <g id="Mouse">
            <g>
                <path d="M641.457,508.746C663.313,508.38 668.722,530.592 657.377,530.508C603.503,530.107 673.607,530.294 626.08,530.508C614.734,530.559 619.767,509.108 641.457,508.746Z" style="fill:white;"/>
            </g>
        </g>
        <g id="Coffee cup">
            <g>
                <rect x="302.651" y="478.729" width="39.0267" height="51.8205" style="fill:rgb(243,243,243);"/>
            </g>
            <g>
                <path d="M341.833,494.85L348.224,494.85L348.224,512.778L341.833,512.778L341.833,519.464C341.833,519.464 352.994,523.404 354.615,519.464C356.746,514.289 356.746,493.586 354.615,488.41C352.994,484.47 341.833,488.41 341.833,488.41L341.833,494.85Z" style="fill:rgb(240,240,240);"/>
            </g>
            <g>
                <rect x="302.651" y="525.51" width="39.0267" height="5.03972" style="fill:rgb(236,236,236);"/>
            </g>
            <rect x="337.815" y="478.729" width="3.86323" height="46.7808" style="fill:rgb(236,236,236);"/>
            <g>
                <path d="M343.55,487.827L340.833,488.41L340.833,494.869L343.55,494.869L343.55,487.827Z" style="fill:rgb(236,236,236);"/>
            </g>
            <g>
                <path d="M343.55,512.786L340.833,512.786C340.811,514.909 340.641,516.281 340.833,519.379L343.55,520.039L343.55,512.786Z" style="fill:rgb(236,236,236);"/>
            </g>
        </g>
        <g id="Picture">
            <rect x="721.334" y="173.899" width="171.075" height="138.352" style="fill:white;"/>
            <rect x="743.55" y="198.745" width="125.891" height="88.3786" style="fill:rgb(152,191,249);"/>
            <g>
                <rect x="743.55" y="198.745" width="125.891" height="2.05063" style="fill:rgb(0,30,75);fill-opacity:0.196078;"/>
            </g>
            <g>
                <rect x="743.55" y="200.796" width="1.97684" height="86.328" style="fill:rgb(0,30,75);fill-opacity:0.196078;"/>
            </g>
            <g>
                <path d="M770.575,209.252C779.6,209.252 786.916,216.568 786.916,225.593C786.916,234.618 779.6,241.934 770.575,241.934C761.55,241.934 754.234,234.618 754.234,225.593C754.234,216.568 761.55,209.252 770.575,209.252Z" style="fill:rgb(255,214,6);"/>
            </g>
            <g id="Rocky">
                <path d="M816.758,247.884L824.021,239.52L843.389,236.879L848.672,245.463L856.815,249.865L864.959,278.697L853.074,282.879L833.925,280.678L811.475,281.559L808.174,268.353L813.016,265.491L814.557,248.324L816.758,247.884Z" style="fill:rgb(231,232,233);fill-opacity:0.890196;fill-rule:nonzero;"/>
                <path d="M811.385,281.764L808.631,270.861L812.771,274.296L822.675,273.098L827.32,281.282L811.385,281.764Z" style="fill:rgb(167,169,172);fill-opacity:0.890196;fill-rule:nonzero;"/>
                <path d="M822.675,273.099L854.589,273.099L858.917,257.922L864.816,278.808L853.074,282.879L831.479,281.119L827.32,281.282L822.675,273.099Z" style="fill:rgb(188,190,192);fill-opacity:0.890196;fill-rule:nonzero;"/>
            </g>
            <g>
                <path d="M792.398,198.745L743.55,247.593L743.55,284.237L829.042,198.745L792.398,198.745Z" style="fill:white;fill-opacity:0.498039;"/>
            </g>
            <g>
                <path d="M721.334,312.251L731.197,315.794L897.749,315.615L897.615,180.165L892.409,173.899L892.409,312.251L721.334,312.251Z" style="fill:rgb(1,94,64);fill-opacity:0.2;"/>
            </g>
        </g>
        <g id="Books">
            <rect x="718.139" y="513.728" width="95.7915" height="16.8216" style="fill:rgb(246,246,246);"/>
            <path d="M727.953,513.728L813.931,513.728L813.931,530.55L732.883,517.692L727.953,513.728Z" style="fill:rgb(216,219,223);"/>
            <rect x="746.64" y="501.455" width="77.8034" height="12.2726" style="fill:white;"/>
            <rect x="727.953" y="501.455" width="18.6873" height="12.2726" style="fill:rgb(0,30,75);"/>
            <g>
                <rect x="762.342" y="496.902" width="47.7006" height="4.55361" style="fill:rgb(242,175,13);"/>
            </g>
            <g>
                <rect x="757.121" y="496.902" width="5.22138" height="4.55361" style="fill:rgb(216,219,223);"/>
            </g>
            <g>
                <path d="M810.043,496.902L816.39,499.179L810.043,501.455L810.043,496.902Z" style="fill:rgb(238,205,129);"/>
            </g>
            <g>
                <path d="M814.192,498.38L814.192,499.975L816.39,499.179L814.192,498.38Z" style="fill:rgb(0,30,75);"/>
            </g>
        </g>
    </g>
</svg>
