<svg xmlns="http://www.w3.org/2000/svg" viewBox="0 0 363.1 74.2"><path d="M102 71.3v-9.7c0-18.2.2-36.3-.1-54.5-.1-4.7 1.3-6.3 5.9-5.8 2.3.3 4.6 0 7.5 0v23.1c5.8-1.7 11.3-4.3 16.9-4.6 9.4-.5 16.4 5.6 19.6 15.5 2.5 7.7 2.4 15.5-.4 23-5.5 14.7-21.5 18.9-33.7 9.1-.5-.4-1-.7-1.9-1.3-.2 1.9-.4 3.3-.6 5.1-4.2.1-8.3.1-13.2.1zm12.6-24.7c.8 3.6.7 7.8 2.7 10.6 3.2 4.4 10.7 5.1 15.5 2.5 5.1-2.7 7.9-9.5 6.7-16.4-1-6.2-4.8-10.5-10.1-11.5-9.4-1.6-14 3.2-14.8 14.8zM291.7 50.4c.9 12 12.1 14.8 27.7 7.5 1.7 2.5 3.5 5.1 5.2 7.5-8.1 8.7-26 10-36.7 2.8-10.2-6.9-13.9-21.3-8.5-33.5 5.2-11.6 18.2-17.7 30.8-14.3 12 3.2 19.3 15 17.9 29.9-12 .1-24.2.1-36.4.1zm23.8-9.2c-1.3-7.5-6.1-11.4-12.8-11-6.4.3-10.7 4.4-11.3 11h24.1zM193.5 21.1h12.7v50.2h-12.3c-.2-1.5-.4-3.1-.8-5.4-5.7 4.7-11.7 7.4-18.9 7-8.9-.5-14.4-4.9-14.7-13.7-.4-12.5-.1-24.9-.1-37.8h13.1v16.7c0 4.2.1 8.3 0 12.5-.1 4.7.8 8.7 6.1 10.1 5 1.3 12.1-1 14.2-5 .7-1.4.7-3.2.7-4.8V21.1zM248.9 5.3c-1.5 2.4-3 4.6-4.3 6.8-10.3-2.1-13.1-.1-11.8 8.6 3 .2 6.1.3 9.4.5v11c-3.1.2-6.2.4-10 .6v38.5h-13.5V32.7c-2.8-.2-5.1-.4-7.8-.6V21c2.5-.2 4.9-.3 7.6-.5.1-8.4 2-15.8 10.7-19.1 6.3-2.2 14.2-.8 19.7 3.9zM253.1 32.9c-3.3-.2-5.6-.4-8.1-.6v-11c2.4-.2 4.8-.3 7.8-.6.2-8.8 2.3-16.9 12-19.5 6.5-1.7 12.8-1 18.5 3.8-1.6 2.6-3.1 5-4.5 7.2-9.4-2.7-12.7-.5-11.9 8.5h9.5v11.5c-3.2.2-6.1.3-9.7.5v38.5h-13.5c-.1-12.6-.1-25.3-.1-38.3zM347.4 71c-1 .4-1.3.6-1.6.6-11.6.9-11.6.9-11.6-10.7V27v-5.7h13c.1 1.7.3 3.4.4 4.7 4.9-2.4 9.8-4.8 15.6-7.6V32c-1.7.1-3.5.1-5.3.5-9 2.1-11 4-10.6 12 .5 8.8.1 17.6.1 26.5z"/><path d="M114.6 46.6c.8-11.6 5.4-16.4 14.8-14.8 5.3.9 9.1 5.2 10.1 11.5 1.1 7-1.6 13.8-6.7 16.4-4.8 2.5-12.3 1.9-15.5-2.5-2-2.8-1.9-7.1-2.7-10.6z" fill="#FFF"/><path d="M36.2 0c.9 0 1.8.4 2.6.7 10.5 4.9 21 9.8 31.6 14.7.8.4 1.8.5 1.9 1.6 0 1.2-1.1 1.3-1.8 1.6-10.6 5-21.2 9.9-31.8 14.8-1.7.8-3.4.8-5.1 0-10.8-5-21.5-10-32.3-15.1C.8 18 0 17.4.1 16.9c0-.5.7-1.1 1.3-1.4C12.1 10.7 22.9 5.6 33.6.6c.8-.3 2.1-.6 2.6-.6z"/><path d="M36.1 54.2c-.7 0-1.8-.4-2.6-.8-10.7-5-21.5-10-32.2-15-.6-.3-1.3-.9-1.3-1.3.1-.5.7-1.2 1.3-1.5 1.7-.9 3.5-1.7 5.3-2.5 1.8-.8 3.6-.8 5.4 0 7 3.3 14.1 6.5 21.1 9.9 2 .9 3.9.9 5.9 0 7-3.3 14.1-6.6 21.1-9.9 1.8-.8 3.6-.9 5.3 0 1.9.9 3.8 1.7 5.6 2.7.5.2 1.1.9 1.1 1.2 0 .5-.6 1.1-1.1 1.4-10.8 5.1-21.6 10.1-32.5 15.2-.6.3-1.6.6-2.4.6z"/><path d="M36.2 74.2c-1.1 0-2.1-.5-3.1-1-10.4-4.8-20.8-9.7-31.2-14.6-.8-.3-1.9-.4-1.9-1.6 0-1.2.9-1.3 1.6-1.6 3.2-1.5 3.4-1.5 5-2.3 1.9-.9 3.7-.9 5.6 0 6.9 3.2 13.8 6.4 20.7 9.7 2.2 1.1 4.3 1.1 6.5 0 6.9-3.3 13.8-6.4 20.7-9.7 1.9-.9 3.8-.9 5.7 0 1.8.9 3.6 1.7 5.4 2.6.5.2 1.1.8 1.1 1.2 0 .6-.6 1.1-1.1 1.4-7.4 3.5-14.9 7-22.3 10.5l-9.6 4.5c-1.1.4-2 .9-3.1.9z"/></svg>