<svg xmlns="http://www.w3.org/2000/svg" version="1.1" x="0" y="0" viewBox="0 0 598.4 598.4" xml:space="preserve">
  <rect x="288.1" y="0" width="23.9" height="69.7"/>
  <rect x="155.8" y="35" transform="matrix(0.866 -0.5 0.5 0.866 -12.433 93.2362)" width="23.9" height="69.7"/>
  <rect x="58.7" y="131.4" transform="matrix(0.5 -0.866 0.866 0.5 -108.6353 144.3467)" width="23.9" height="69.7"/>
  <rect x="0" y="286.3" width="69.7" height="23.9"/>
  <rect x="57.8" y="395.8" transform="matrix(-0.5 -0.866 0.866 -0.5 -268.1777 706.3548)" width="23.9" height="69.7"/>
  <rect x="154.3" y="492.8" transform="matrix(-0.866 -0.5 0.5 -0.866 46.4007 1067.7687)" width="23.9" height="69.7"/>
  <rect x="286.3" y="528.7" width="23.9" height="69.7"/>
  <rect x="418.6" y="493.7" transform="matrix(-0.866 0.5 -0.5 -0.866 1067.7686 770.972)" width="23.9" height="69.7"/>
  <rect x="515.7" y="397.3" transform="matrix(-0.5 0.866 -0.866 -0.5 1165.7147 191.1821)" width="23.9" height="69.7"/>
  <rect x="528.7" y="288.1" width="69.7" height="23.9"/>
  <rect x="516.6" y="132.9" transform="matrix(0.5 0.866 -0.866 0.5 409.5581 -373.8469)" width="23.9" height="69.7"/>
  <rect x="420.1" y="35.9" transform="matrix(0.866 0.5 -0.5 0.866 93.2361 -206.5812)" width="23.9" height="69.7"/>
  <rect x="297.3" y="0" width="5.7" height="30.2"/>
  <rect x="267.6" y="1.5" transform="matrix(0.9945 -0.1045 0.1045 0.9945 -0.2483 28.3646)" width="5.7" height="30.2"/>
  <rect x="238.2" y="6" transform="matrix(0.9781 -0.2079 0.2079 0.9781 0.8821 50.5896)" width="5.7" height="30.2"/>
  <rect x="209.5" y="13.6" transform="matrix(0.9511 -0.309 0.309 0.9511 1.5271 67.0258)" width="5.7" height="30.2"/>
  <rect x="181.7" y="24.1" transform="matrix(0.9135 -0.4067 0.4067 0.9135 -8.323080e-03 78.4596)" width="5.7" height="30.2"/>
  <rect x="155.1" y="37.6" transform="matrix(0.866 -0.5 0.5 0.866 -5.1571 86.0621)" width="5.7" height="30.2"/>
  <rect x="130.1" y="53.7" transform="matrix(0.809 -0.5878 0.5878 0.809 -15.0119 91.3192)" width="5.7" height="30.2"/>
  <rect x="107" y="72.3" transform="matrix(0.7431 -0.6691 0.6691 0.7431 -30.2617 95.9475)" width="5.7" height="30.2"/>
  <rect x="85.9" y="93.2" transform="matrix(0.6691 -0.7431 0.7431 0.6691 -51.1511 101.7971)" width="5.7" height="30.2"/>
  <rect x="67.1" y="116.3" transform="matrix(0.5878 -0.809 0.809 0.5878 -77.4578 110.7484)" width="5.7" height="30.2"/>
  <rect x="50.8" y="141.2" transform="matrix(0.5 -0.866 0.866 0.5 -108.4961 124.6077)" width="5.7" height="30.2"/>
  <rect x="37.2" y="167.6" transform="matrix(0.4067 -0.9135 0.9135 0.4067 -143.1411 145.0026)" width="5.7" height="30.2"/>
  <rect x="26.4" y="195.3" transform="matrix(0.309 -0.9511 0.9511 0.309 -179.8756 173.287)" width="5.7" height="30.2"/>
  <rect x="18.6" y="224" transform="matrix(0.2079 -0.9781 0.9781 0.2079 -216.8564 210.4582)" width="5.7" height="30.2"/>
  <rect x="13.9" y="253.4" transform="matrix(0.1045 -0.9945 0.9945 0.1045 -251.998 257.0861)" width="5.7" height="30.2"/>
  <rect x="0" y="295.3" width="30.2" height="5.7"/>
  <rect x="13.7" y="312.8" transform="matrix(-0.1045 -0.9945 0.9945 -0.1045 -307.7905 378.5998)" width="5.7" height="30.2"/>
  <rect x="18.2" y="342.2" transform="matrix(-0.2079 -0.9781 0.9781 -0.2079 -323.9619 452.1674)" width="5.7" height="30.2"/>
  <rect x="25.8" y="370.9" transform="matrix(-0.309 -0.9511 0.9511 -0.309 -329.5516 532.5718)" width="5.7" height="30.2"/>
  <rect x="36.4" y="398.7" transform="matrix(-0.4067 -0.9135 0.9135 -0.4067 -322.8119 617.9643)" width="5.7" height="30.2"/>
  <rect x="49.8" y="425.2" transform="matrix(-0.5 -0.866 0.866 -0.5 -302.3667 706.1138)" width="5.7" height="30.2"/>
  <rect x="65.9" y="450.2" transform="matrix(-0.5878 -0.809 0.809 -0.5878 -267.2895 794.4857)" width="5.7" height="30.2"/>
  <rect x="84.5" y="473.4" transform="matrix(-0.6691 -0.7431 0.7431 -0.6691 -217.169 880.3362)" width="5.7" height="30.2"/>
  <rect x="105.5" y="494.5" transform="matrix(-0.7431 -0.6691 0.6691 -0.7431 -152.1421 960.8254)" width="5.7" height="30.2"/>
  <rect x="128.5" y="513.3" transform="matrix(-0.809 -0.5878 0.5878 -0.809 -72.9149 1033.1266)" width="5.7" height="30.2"/>
  <rect x="153.4" y="529.6" transform="matrix(-0.866 -0.5 0.5 -0.866 19.2462 1094.5425)" width="5.7" height="30.2"/>
  <rect x="179.8" y="543.2" transform="matrix(-0.9135 -0.4067 0.4067 -0.9135 122.549 1142.6216)" width="5.7" height="30.2"/>
  <rect x="207.6" y="553.9" transform="matrix(-0.9511 -0.309 0.309 -0.9511 234.7222 1175.259)" width="5.7" height="30.2"/>
  <rect x="236.3" y="561.7" transform="matrix(-0.9781 -0.2079 0.2079 -0.9781 353.0966 1190.7904)" width="5.7" height="30.2"/>
  <rect x="265.6" y="566.5" transform="matrix(-0.9945 -0.1045 0.1045 -0.9945 474.6946 1188.0688)" width="5.7" height="30.2"/>
  <rect x="295.3" y="568.2" width="5.7" height="30.2"/>
  <rect x="325" y="566.7" transform="matrix(-0.9945 0.1045 -0.1045 -0.9945 714.7544 1126.1553)" width="5.7" height="30.2"/>
  <rect x="354.4" y="562.2" transform="matrix(-0.9781 0.2079 -0.2079 -0.9781 826.7188 1067.6287)" width="5.7" height="30.2"/>
  <rect x="383.1" y="554.6" transform="matrix(-0.9511 0.309 -0.309 -0.9511 929.1487 992.169)" width="5.7" height="30.2"/>
  <rect x="410.9" y="544" transform="matrix(-0.9135 0.4067 -0.4067 -0.9135 1019.2363 901.5721)" width="5.7" height="30.2"/>
  <rect x="437.5" y="530.6" transform="matrix(-0.866 0.5 -0.5 -0.866 1094.5425 798.1261)" width="5.7" height="30.2"/>
  <rect x="462.5" y="514.5" transform="matrix(-0.809 0.5878 -0.5878 -0.809 1153.0944 684.532)" width="5.7" height="30.2"/>
  <rect x="485.6" y="495.9" transform="matrix(-0.7431 0.6691 -0.6691 -0.7431 1193.4528 563.8107)" width="5.7" height="30.2"/>
  <rect x="506.7" y="474.9" transform="matrix(-0.6691 0.7431 -0.7431 -0.6691 1214.7645 439.184)" width="5.7" height="30.2"/>
  <rect x="525.5" y="451.9" transform="matrix(-0.5878 0.809 -0.809 -0.5878 1216.7899 313.9625)" width="5.7" height="30.2"/>
  <rect x="541.8" y="427" transform="matrix(-0.5 0.866 -0.866 -0.5 1199.9038 191.4234)" width="5.7" height="30.2"/>
  <rect x="555.4" y="400.5" transform="matrix(-0.4067 0.9135 -0.9135 -0.4067 1165.0752 74.687)" width="5.7" height="30.2"/>
  <rect x="566.2" y="372.8" transform="matrix(-0.309 0.9511 -0.9511 -0.309 1113.8242 -33.3889)" width="5.7" height="30.2"/>
  <rect x="574" y="344.1" transform="matrix(-0.2079 0.9781 -0.9781 -0.2079 1048.1521 -130.3142)" width="5.7" height="30.2"/>
  <rect x="578.7" y="314.8" transform="matrix(-0.1045 0.9945 -0.9945 -0.1045 970.4608 -214.0488)" width="5.7" height="30.2"/>
  <rect x="568.2" y="297.3" width="30.2" height="5.7"/>
  <rect x="578.9" y="255.4" transform="matrix(0.1045 0.9945 -0.9945 0.1045 790.0002 -336.4034)" width="5.7" height="30.2"/>
  <rect x="574.4" y="226" transform="matrix(0.2079 0.9781 -0.9781 0.2079 693.0771 -373.6693)" width="5.7" height="30.2"/>
  <rect x="566.8" y="197.3" transform="matrix(0.309 0.9511 -0.9511 0.309 595.5916 -395.0504)" width="5.7" height="30.2"/>
  <rect x="556.2" y="169.5" transform="matrix(0.4067 0.9135 -0.9135 0.4067 500.3006 -401.2799)" width="5.7" height="30.2"/>
  <rect x="542.8" y="142.9" transform="matrix(0.5 0.866 -0.866 0.5 409.6974 -393.5858)" width="5.7" height="30.2"/>
  <rect x="526.7" y="117.9" transform="matrix(0.5878 0.809 -0.809 0.5878 325.9235 -373.6205)" width="5.7" height="30.2"/>
  <rect x="508.1" y="94.7" transform="matrix(0.6691 0.7431 -0.7431 0.6691 250.6942 -343.3782)" width="5.7" height="30.2"/>
  <rect x="487.1" y="73.6" transform="matrix(0.7431 0.6691 -0.6691 0.7431 185.2446 -305.0903)" width="5.7" height="30.2"/>
  <rect x="464.1" y="54.8" transform="matrix(0.809 0.5878 -0.5878 0.809 130.2991 -261.1213)" width="5.7" height="30.2"/>
  <rect x="439.2" y="38.6" transform="matrix(0.866 0.5 -0.5 0.866 86.0622 -213.8572)" width="5.7" height="30.2"/>
  <rect x="412.8" y="25" transform="matrix(0.9135 0.4067 -0.4067 0.9135 52.2333 -165.5948)" width="5.7" height="30.2"/>
  <rect x="385.1" y="14.2" transform="matrix(0.9511 0.309 -0.309 0.9511 28.0459 -118.4407)" width="5.7" height="30.2"/>
  <rect x="356.4" y="6.4" transform="matrix(0.9781 0.2079 -0.2079 0.9781 12.324 -74.2182)" width="5.7" height="30.2"/>
  <rect x="327" y="1.7" transform="matrix(0.9945 0.1045 -0.1045 0.9945 3.5593 -34.3899)" width="5.7" height="30.2"/>
</svg>
