<?xml version="1.0" standalone="no"?>
<!DOCTYPE svg PUBLIC "-//W3C//DTD SVG 1.1//EN" "http://www.w3.org/Graphics/SVG/1.1/DTD/svg11.dtd">
<svg width="120px" height="228px" version="1.1" xmlns="http://www.w3.org/2000/svg" xmlns:xlink="http://www.w3.org/1999/xlink" xml:space="preserve" style="fill-rule:evenodd;clip-rule:evenodd;stroke-linejoin:round;stroke-miterlimit:1.41421;">
    <g>
        <g id="Layer1">
            <g>
                <rect x="-5.68434e-14" y="0" width="120" height="70" style="fill:rgb(255,248,190);fill-opacity:0.501961;"/>
            </g>
            <g>
                <rect x="22.5825" y="51.6153" width="74.3763" height="4.83566" style="fill:rgb(190,190,190);fill-opacity:0.498039;"/>
            </g>
            <g>
                <path d="M47.6163,24.541L52.0569,19.4276L63.8986,17.8128L67.1281,23.0608L72.107,25.7521L77.0859,43.3801L69.8194,45.9368L58.1123,44.5911L44.3867,45.1294L42.3683,37.0555L45.3287,35.3062L46.2706,24.8102L47.6163,24.541Z" style="fill:rgb(183,183,183);fill-rule:nonzero;"/>
            </g>
            <g>
                <g>
                    <rect x="-0.28879" y="74.7456" width="120" height="24" style="fill:rgb(242,242,242);fill-opacity:0.498039;"/>
                </g>
                <g>
                    <rect x="4.98741" y="78.9514" width="23.6197" height="2.97525" style="fill:rgb(213,213,213);"/>
                </g>
                <g>
                    <rect x="5.13069" y="83.5631" width="40.3765" height="2.97525" style="fill:rgb(213,213,213);"/>
                </g>
                <g>
                    <rect x="5.05727" y="91.4884" width="40.3765" height="2.97525" style="fill:rgb(213,213,213);"/>
                </g>
                <g>
                    <rect x="104.707" y="77.326" width="12.2172" height="2.97525" style="fill:rgb(213,213,213);"/>
                </g>
            </g>
            <g>
                <g>
                    <rect x="-0.28879" y="100.361" width="120" height="24" style="fill:rgb(242,242,242);fill-opacity:0.498039;"/>
                </g>
                <g>
                    <rect x="4.98741" y="104.567" width="23.6197" height="2.97525" style="fill:rgb(213,213,213);"/>
                </g>
                <g>
                    <rect x="5.13069" y="109.179" width="40.3765" height="2.97525" style="fill:rgb(213,213,213);"/>
                </g>
                <g>
                    <rect x="5.05727" y="117.104" width="40.3765" height="2.97525" style="fill:rgb(213,213,213);"/>
                </g>
                <g>
                    <rect x="104.707" y="102.942" width="12.2172" height="2.97525" style="fill:rgb(213,213,213);"/>
                </g>
            </g>
            <g>
                <g>
                    <rect x="-0.28879" y="125.977" width="120" height="24" style="fill:rgb(242,242,242);fill-opacity:0.498039;"/>
                </g>
                <g>
                    <rect x="4.98741" y="130.183" width="23.6197" height="2.97525" style="fill:rgb(213,213,213);"/>
                </g>
                <g>
                    <rect x="5.13069" y="134.795" width="40.3765" height="2.97525" style="fill:rgb(213,213,213);"/>
                </g>
                <g>
                    <rect x="5.05727" y="142.72" width="40.3765" height="2.97525" style="fill:rgb(213,213,213);"/>
                </g>
                <g>
                    <rect x="104.707" y="128.558" width="12.2172" height="2.97525" style="fill:rgb(213,213,213);"/>
                </g>
            </g>
            <g>
                <g>
                    <rect x="-0.28879" y="151.593" width="120" height="24" style="fill:rgb(242,242,242);fill-opacity:0.498039;"/>
                </g>
                <g>
                    <rect x="4.98741" y="155.799" width="23.6197" height="2.97525" style="fill:rgb(213,213,213);"/>
                </g>
                <g>
                    <rect x="5.13069" y="160.41" width="40.3765" height="2.97525" style="fill:rgb(213,213,213);"/>
                </g>
                <g>
                    <rect x="5.05727" y="168.336" width="40.3765" height="2.97525" style="fill:rgb(213,213,213);"/>
                </g>
                <g>
                    <rect x="104.707" y="154.173" width="12.2172" height="2.97525" style="fill:rgb(213,213,213);"/>
                </g>
            </g>
            <g>
                <g>
                    <rect x="-0.28879" y="177.209" width="120" height="24" style="fill:rgb(242,242,242);fill-opacity:0.498039;"/>
                </g>
                <g>
                    <rect x="4.98741" y="181.415" width="23.6197" height="2.97525" style="fill:rgb(213,213,213);"/>
                </g>
                <g>
                    <rect x="5.13069" y="186.026" width="40.3765" height="2.97525" style="fill:rgb(213,213,213);"/>
                </g>
                <g>
                    <rect x="5.05727" y="193.951" width="40.3765" height="2.97525" style="fill:rgb(213,213,213);"/>
                </g>
                <g>
                    <rect x="104.707" y="179.789" width="12.2172" height="2.97525" style="fill:rgb(213,213,213);"/>
                </g>
            </g>
            <g>
                <g>
                    <rect x="-0.28879" y="202.824" width="120" height="24" style="fill:rgb(242,242,242);fill-opacity:0.498039;"/>
                </g>
                <g>
                    <rect x="4.98741" y="207.03" width="23.6197" height="2.97525" style="fill:rgb(213,213,213);"/>
                </g>
                <g>
                    <rect x="5.13069" y="211.642" width="40.3765" height="2.97525" style="fill:rgb(213,213,213);"/>
                </g>
                <g>
                    <rect x="5.05727" y="219.567" width="40.3765" height="2.97525" style="fill:rgb(213,213,213);"/>
                </g>
                <g>
                    <rect x="104.707" y="205.405" width="12.2172" height="2.97525" style="fill:rgb(213,213,213);"/>
                </g>
            </g>
            <g>
                <rect x="5.14473" y="5.51228" width="23.6197" height="2.97525" style="fill:rgb(213,213,213);"/>
            </g>
            <g>
                <rect x="103.667" y="4.78535" width="12.2172" height="2.97525" style="fill:rgb(213,213,213);"/>
            </g>
        </g>
    </g>
</svg>
