<?xml version="1.0" encoding="UTF-8" standalone="no"?>
<svg width="962px" height="1407px" viewBox="0 0 962 1407" version="1.1" xmlns="http://www.w3.org/2000/svg" xmlns:xlink="http://www.w3.org/1999/xlink" xmlns:sketch="http://www.bohemiancoding.com/sketch/ns">
    <!-- Generator: Sketch 3.4.2 (15857) - http://www.bohemiancoding.com/sketch -->
    <title>bulb</title>
    <desc>Created with Sketch.</desc>
    <defs></defs>
    <g id="Page-1" stroke="none" stroke-width="1" fill="none" fill-rule="evenodd" sketch:type="MSPage">
        <g id="Artboard-1" sketch:type="MSArtboardGroup" transform="translate(-332.000000, -171.000000)">
            <g id="bulb" sketch:type="MSLayerGroup" transform="translate(332.000000, 171.000000)">
                <path d="M485.382,1178.573 C424.173,1178.365 370.356,1176.405 353.603,1161.318 C330.875,1140.852 275.197,1015.365 246.171,959.608 C184.493,841.134 112.686,703.354 78.597,573.165 C12.66,321.349 225.25,73.322 478.956,62.877 C730.562,52.519 955.712,326.16 880.122,573.165 C842.119,697.338 766.936,846.263 708.787,961.801 C681.063,1016.886 672.892,1030.136 648.467,1086.773 C641.605,1102.685 630.802,1152.909 616.702,1163.51 C592.551,1181.668 514.164,1178.493 485.382,1178.573 C444.405,1178.434 519.963,1178.476 485.382,1178.573 L485.382,1178.573 Z" id="Shape" fill="#FFFFFF" sketch:type="MSShapeGroup"></path>
                <path d="M491.208,1406.148 C446.775,1404.685 404.242,1400.191 360.609,1391.789 C306.87,1381.441 321.466,1336.346 316.54,1295.83 C314.071,1275.523 317.713,1255.827 314.989,1235.179 C314.032,1227.93 303.312,1223.351 299.164,1217.908 C293.005,1209.825 290.011,1200.168 286.121,1190.928 C264.238,1138.945 239.074,1088.844 214.836,1037.976 C130.799,861.61 0.375,679.271 0.001,476.526 C-0.382,269.251 139.126,74.929 341.152,19.639 C545.341,-36.242 757.38,33.043 879.302,208.194 C949.516,309.062 977.68,445.324 951.465,565.641 C926.678,679.399 875.424,783.804 823.6,887.25 C795.843,942.656 767.857,997.917 740.665,1053.606 C727.787,1079.982 715.616,1106.665 703.945,1133.595 C692.582,1159.813 684.966,1199.56 665.118,1220.472 C632.685,1254.643 665.243,1318.231 650.684,1361.115 C633.747,1411.005 532.837,1403.463 491.208,1406.148 C454.321,1404.933 507.075,1405.124 491.208,1406.148 L491.208,1406.148 Z M614.138,1190.592 C631.695,1172.06 656.824,1121.129 667.284,1097.839 C689.987,1047.288 715.634,995.136 740.162,945.458 C790.063,844.389 841.396,744.437 880.396,638.488 C946.181,459.777 908.386,264.805 758.933,142.698 C614.344,24.565 403.466,13.943 245.477,112.885 C80.321,216.315 14.718,416.948 66.463,602.049 C115.45,777.287 220.734,923.273 295.166,1087.901 C307.073,1114.237 332.78,1178.739 342.647,1185.071 C373.538,1204.896 594.263,1211.572 614.138,1190.592 L614.138,1190.592 Z" id="Shape" fill="#FFFFFF" sketch:type="MSShapeGroup"></path>
                <path d="M613.123,1200.994 C613.123,1210.151 619.007,1250.621 607.986,1252.864 C583.649,1257.817 559.028,1261.355 534.285,1263.497 C479.166,1268.27 425.934,1263.392 371.618,1254.156 C347.183,1250.001 355.385,1233.903 355.336,1211.812 C355.301,1195.739 351.365,1198.641 336.957,1196.192 C327.679,1194.615 323.056,1173.414 320.154,1166.7 C297.301,1113.831 273.695,1061.519 247.642,1010.137 C198.254,912.733 145.1,816.884 101.29,716.764 C60.539,623.633 30.371,525.198 42.592,422.47 C64.344,239.619 204.993,89.127 383.369,50.197 C567.328,10.048 759.653,87.308 857.715,249.39 C897.028,314.368 918.552,389.217 920.115,465.143 C922.007,557.06 890.177,642.539 854.652,725.894 C817.836,812.277 772.79,895.493 731.185,979.646 C710.419,1021.649 689.315,1063.608 670.591,1106.574 C662.09,1126.08 654.08,1145.794 646.016,1165.483 C636.61,1188.443 635.663,1193.035 613.123,1200.994 C613.123,1215.919 611.183,1195.566 613.123,1200.994 L613.123,1200.994 Z M487.984,1173.232 C526.14,1173.622 595.802,1180.271 611.997,1138.999 C630.483,1091.888 651.871,1045.456 674.394,1000.157 C720.348,907.731 769.809,816.705 810.798,721.938 C852.989,624.392 891.06,528.607 876.472,420.153 C863.404,322.996 811.677,233.509 736.931,170.8 C586.086,44.248 361.717,53.798 214.454,179.88 C143.173,240.909 93.58,333.669 82.931,427.001 C71.086,530.816 106.499,621.453 146.338,715.034 C187.764,812.341 241.561,903.653 288.006,998.54 C311.066,1045.652 334.009,1092.844 354.495,1141.146 C370.548,1178.996 451.695,1172.102 487.984,1173.232 C522.172,1174.298 434.306,1173.345 487.984,1173.232 L487.984,1173.232 Z" id="Shape" fill="#000000" sketch:type="MSShapeGroup"></path>
                <path d="M493.304,1315.967 C454.605,1314.736 423.347,1313.358 392.449,1307.763 C383.452,1306.134 374.388,1304.855 365.425,1303.067 C358.151,1301.616 356.131,1298.546 356.326,1291.233 C356.481,1285.409 356.329,1279.578 356.376,1273.75 C356.419,1268.373 359.453,1265.828 364.57,1267.07 C411.112,1278.374 458.379,1282.475 506.158,1281.1 C539.315,1280.146 572.113,1276.038 604.495,1268.771 C611.089,1267.291 613.604,1269.118 613.788,1275.734 C613.945,1281.394 614.034,1287.057 614.135,1292.719 C614.244,1298.816 611.948,1302.151 605.866,1303.198 C589.315,1306.047 572.786,1309.308 556.108,1311.065 C532.786,1313.52 509.335,1314.761 493.304,1315.967 L493.304,1315.967 Z" id="Shape" fill="#000000" sketch:type="MSShapeGroup"></path>
                <path d="M493.233,1365.967 C454.659,1364.737 423.4,1363.363 392.501,1357.774 C383.504,1356.147 374.441,1354.863 365.477,1353.077 C358.173,1351.622 356.123,1348.554 356.321,1341.285 C356.475,1335.628 356.358,1329.963 356.372,1324.302 C356.387,1318.23 359.289,1315.734 365.012,1317.135 C412.538,1328.771 460.834,1332.657 509.601,1331.006 C541.567,1329.924 573.214,1325.834 604.445,1318.789 C611.243,1317.255 613.63,1319.102 613.802,1326.18 C613.936,1331.675 614.034,1337.17 614.135,1342.665 C614.247,1348.808 611.98,1352.149 605.918,1353.188 C589.201,1356.053 572.506,1359.319 555.662,1361.097 C532.506,1363.542 509.222,1364.765 493.233,1365.967 L493.233,1365.967 Z" id="Shape" fill="#000000" sketch:type="MSShapeGroup"></path>
                <g id="Group" transform="translate(309.000000, 573.000000)" fill="#000000" sketch:type="MSShapeGroup">
                    <path d="M0.606,40.412 L26.015,40.412 C27.403,49.277 28.196,58.242 30.263,66.902 C42.932,119.973 72.676,159.232 124.665,178.727 C180.81,199.781 243.631,179.383 280.92,129.242 C299.372,104.43 309.615,76.468 312.311,45.702 C312.455,44.062 312.685,42.43 312.907,40.515 L339.467,40.515 C338.003,50.876 337.235,61.143 335.034,71.093 C322.259,128.847 291.409,173.41 237.49,199.66 C171.869,231.606 93.847,213.59 45.251,156.128 C17.511,123.328 3.224,85.106 0.451,42.41 C0.419,41.921 0.523,41.421 0.606,40.412 L0.606,40.412 Z" id="Shape"></path>
                    <path d="M118.152,39.914 L83.154,39.914 C83.446,28.394 84.789,17.413 90.674,7.557 C96.57,-2.317 104.786,-2.297 110.673,7.605 C116.537,17.465 117.874,28.436 118.152,39.914 L118.152,39.914 Z" id="Shape"></path>
                    <path d="M256.193,40.005 L221.152,40.005 C221.506,27.919 222.808,16.302 229.621,6.129 C234.979,-1.872 242.319,-1.863 247.696,6.124 C254.468,16.179 255.736,27.739 256.193,40.005 L256.193,40.005 Z" id="Shape"></path>
                </g>
            </g>
        </g>
    </g>
</svg>